<svg width="195" height="67" viewBox="0 0 195 67" fill="none" xmlns="http://www.w3.org/2000/svg">
<path d="M11.9634 21.5064V0.912949H17.935V21.5269C17.935 23.5038 17.5532 25.2148 16.7898 26.66C16.0399 28.0915 15.0173 29.189 13.7222 29.9525C12.427 30.716 10.9682 31.0977 9.3458 31.0977C7.68249 31.0977 6.19645 30.7705 4.88763 30.116C3.59242 29.448 2.56991 28.4391 1.82006 27.0894C1.07021 25.726 0.695312 23.9946 0.695312 21.895H6.70768C6.70768 22.9585 6.81678 23.7969 7.03489 24.4104C7.25304 25.0239 7.55983 25.467 7.9552 25.7397C8.36418 26.0124 8.82771 26.1487 9.3458 26.1487C9.90477 26.1487 10.3752 25.9647 10.7569 25.5965C11.1522 25.2284 11.4522 24.7035 11.6567 24.0218C11.8612 23.3265 11.9634 22.4881 11.9634 21.5064ZM35.1215 6.23002L28.7205 30.6887H22.4013L31.7062 0.912949H35.653L35.1215 6.23002ZM40.1726 30.6887L33.7308 6.23002L33.1377 0.912949H37.1461L46.533 30.6887H40.1726ZM40.3977 19.5842V24.5535H26.9618V19.5842H40.3977ZM53.5964 0.912949H58.8521L64.9256 21.2815L70.9792 0.912949H75.6213L67.1548 30.6887H62.6765L53.5964 0.912949ZM51.4693 0.912949H56.48L57.257 20.5453V30.6887H51.4693V0.912949ZM73.3309 0.912949H78.3615V30.6887H72.5948V20.5453L73.3309 0.912949ZM102.42 25.7397V30.6887H89.4744V25.7397H102.42ZM91.3356 0.912949V30.6887H85.3433V0.912949H91.3356ZM100.681 12.9787V17.7845H89.4744V12.9787H100.681ZM102.378 0.912949V5.88239H89.4744V0.912949H102.378ZM120.608 22.8562C120.608 22.3245 120.561 21.8405 120.465 21.4042C120.369 20.9679 120.165 20.5658 119.851 20.1976C119.552 19.8295 119.108 19.4614 118.522 19.0933C117.95 18.7252 117.2 18.3435 116.272 17.9481C115.168 17.4845 114.098 16.9937 113.062 16.4757C112.026 15.9439 111.092 15.3305 110.26 14.6351C109.429 13.9398 108.768 13.1218 108.276 12.1811C107.8 11.2267 107.561 10.1088 107.561 8.82725C107.561 7.57297 107.786 6.43456 108.236 5.41206C108.699 4.3895 109.353 3.51698 110.199 2.79441C111.044 2.05817 112.033 1.49239 113.164 1.09702C114.309 0.701653 115.584 0.503967 116.989 0.503967C118.897 0.503967 120.547 0.899338 121.937 1.69008C123.342 2.48082 124.425 3.56468 125.189 4.94166C125.966 6.31865 126.354 7.90018 126.354 9.68615H120.383C120.383 8.84086 120.261 8.09787 120.015 7.45707C119.783 6.80265 119.408 6.29138 118.89 5.92328C118.372 5.55519 117.704 5.37111 116.886 5.37111C116.123 5.37111 115.489 5.52791 114.984 5.84151C114.493 6.14144 114.125 6.55722 113.88 7.08897C113.648 7.60706 113.532 8.19325 113.532 8.84766C113.532 9.33853 113.648 9.78159 113.88 10.177C114.125 10.5587 114.459 10.9063 114.882 11.2199C115.305 11.5199 115.802 11.813 116.375 12.0993C116.961 12.3856 117.602 12.6651 118.297 12.9378C119.647 13.4695 120.84 14.0557 121.876 14.6965C122.912 15.3236 123.778 16.0326 124.473 16.8233C125.169 17.6004 125.693 18.4798 126.048 19.4614C126.402 20.4431 126.58 21.561 126.58 22.8153C126.58 24.0559 126.361 25.1875 125.925 26.21C125.503 27.2189 124.882 28.0915 124.064 28.8277C123.246 29.5503 122.258 30.1092 121.099 30.5046C119.954 30.9 118.672 31.0977 117.254 31.0977C115.877 31.0977 114.575 30.9068 113.348 30.5251C112.121 30.1297 111.037 29.5367 110.097 28.7459C109.17 27.9415 108.44 26.9258 107.908 25.6988C107.377 24.4582 107.111 22.9925 107.111 21.302H113.103C113.103 22.2018 113.191 22.9721 113.369 23.6129C113.546 24.24 113.819 24.7444 114.187 25.1262C114.555 25.4943 115.005 25.7738 115.536 25.9647C116.082 26.1419 116.702 26.2305 117.397 26.2305C118.188 26.2305 118.815 26.0805 119.279 25.7806C119.756 25.4807 120.097 25.0785 120.301 24.574C120.506 24.0696 120.608 23.497 120.608 22.8562ZM4.29458 36.5129H9.55029L15.6241 56.8814L21.6774 36.5129H26.3196L17.8531 66.2887H13.3745L4.29458 36.5129ZM2.16774 36.5129H7.17807L7.9552 56.1453V66.2887H2.16774V36.5129ZM24.0292 36.5129H29.06V66.2887H23.2929V56.1453L24.0292 36.5129ZM47.1874 41.8299L40.7862 66.2887H34.467L43.7719 36.5129H47.7188L47.1874 41.8299ZM52.2384 66.2887L45.7964 41.8299L45.2032 36.5129H49.2119L58.5982 66.2887H52.2384ZM52.4635 55.1841V60.1534H39.0277V55.1841H52.4635ZM63.5555 36.5129H73.1058C75.0962 36.5129 76.794 36.8538 78.1981 37.5354C79.6022 38.217 80.6797 39.2259 81.4294 40.5619C82.179 41.898 82.5539 43.5476 82.5539 45.5108C82.5539 47.1196 82.3361 48.4971 81.8995 49.642C81.4634 50.7739 80.843 51.7209 80.0389 52.4848C79.2342 53.2345 78.273 53.8344 77.1553 54.2842L75.335 55.3684H67.5841L67.5637 50.3985H72.9424C73.7602 50.3985 74.435 50.2216 74.9669 49.8671C75.5124 49.4991 75.9145 48.9876 76.1736 48.3332C76.4464 47.6652 76.5825 46.8883 76.5825 46.0019C76.5825 45.0611 76.46 44.257 76.2145 43.589C75.9826 42.9073 75.6077 42.389 75.0894 42.0346C74.5853 41.6666 73.924 41.4823 73.1058 41.4823H69.5473V66.2887H63.5555V36.5129ZM77.0736 66.2887L71.6132 53.0162L77.8913 52.9957L83.4743 66.0023V66.2887H77.0736ZM99.6178 36.5129V66.2887H93.6669V36.5129H99.6178ZM107.021 36.5129V41.4823H86.4071V36.5129H107.021ZM118.808 36.5129V66.2887H112.857V36.5129H118.808ZM146.834 36.5129V66.2887H141.046L131.7 47.6584V66.2887H126.015V36.5129H131.721L141.148 55.348V36.5129H146.834ZM170.83 61.3398V66.2887H157.885V61.3398H170.83ZM159.746 36.5129V66.2887H153.754V36.5129H159.746ZM169.092 48.5787V53.3847H157.885V48.5787H169.092ZM170.789 36.5129V41.4823H157.885V36.5129H170.789ZM194.888 61.3398V66.2887H177.178V61.3398H194.888ZM194.663 40.0101L179.795 66.2887H175.603V62.669L190.655 36.5129H194.663V40.0101ZM192.639 36.5129V41.4823H175.48V36.5129H192.639Z" fill="#1A1A1A"/>
</svg>
