<svg width="30" height="46" viewBox="0 0 30 46" fill="none" xmlns="http://www.w3.org/2000/svg">
<path d="M28.5734 0.493646C28.5388 0.51176 28.2503 0.87064 27.932 1.29109C27.6137 1.71153 27.2447 2.19784 27.1117 2.37181C26.8463 2.71922 25.7348 4.43938 25.238 5.27138C24.2857 6.86631 20.9717 11.8408 19.075 14.5236C17.3484 16.965 15.1417 19.9287 14.0496 21.2717C11.6157 24.2657 9.59386 26.1051 8.07406 26.7076C7.63377 26.8819 7.53588 26.8898 7.16574 26.7809C6.59719 26.6139 6.19459 26.072 6.05219 25.282C5.83649 24.0848 6.10819 21.3421 6.82595 17.4759C7.18299 15.5512 7.17203 15.3549 6.71289 15.4709C6.61552 15.4955 6.44693 15.5306 6.33856 15.5487C6.14956 15.5805 6.12758 15.608 5.81084 16.1994C4.81771 18.0568 4.35072 18.8676 2.77176 21.4826C1.89956 22.9267 0.647801 24.8714 0.301224 25.3208C0.0462653 25.6513 0.0577852 25.7206 0.362479 25.6866C0.548856 25.6659 0.717941 25.5828 1.08022 25.335C1.34042 25.1566 1.71003 24.9381 1.90111 24.8495C2.0922 24.761 2.24874 24.6656 2.24874 24.6376C2.24874 24.567 1.80164 24.6371 1.4938 24.7559L1.24514 24.852L2.00007 23.6964C2.7571 22.5375 4.51562 19.6859 5.34071 18.2799C5.5831 17.8668 5.78833 17.5357 5.79723 17.5443C5.80613 17.5529 5.73179 17.9621 5.63232 18.4537C4.98052 21.6788 4.73499 24.3321 4.98576 25.436C5.17162 26.2556 5.50928 26.7579 6.04433 27.0123C6.44849 27.2039 6.80239 27.2531 7.24163 27.1793C7.42487 27.1489 7.7238 27.0987 7.90704 27.0688C9.73834 26.7673 11.9743 24.8494 15.0359 20.9554C17.4238 17.9181 21.0681 12.7669 23.7077 8.69809C24.0087 8.23419 24.3344 7.77154 24.4312 7.67008C24.5281 7.56857 24.9034 7.02295 25.2652 6.45754C25.9552 5.3776 26.5745 4.4542 26.6086 4.4542C26.619 4.4542 26.3704 5.00574 26.0552 5.67989C23.1632 11.8661 20.0393 19.3619 14.7464 32.8172C14.4098 33.6726 13.6193 35.6652 12.9895 37.2457C11.0896 42.0119 10.8074 42.7663 10.5556 43.7574C10.4153 44.3092 10.386 44.9861 10.4964 45.1186C10.5865 45.2269 10.6273 45.2269 11.222 45.1212C11.589 45.0557 11.7356 45.0039 11.8477 44.9002C12.0288 44.7327 12.2073 44.3778 12.2073 44.1851C12.2073 44.0139 12.0801 43.7537 11.966 43.6898C11.8555 43.6291 12.01 43.1674 12.8754 40.9769C13.6083 39.1205 15.0103 35.4254 16.3615 31.789C21.7057 17.4057 24.6951 10.0308 28.0498 2.95167C29.0932 0.749913 29.2032 0.503488 29.167 0.445534C29.1325 0.390092 28.7043 0.424749 28.5734 0.493646Z" fill="#F06111"/>
</svg>
