<svg width="68" height="8" viewBox="0 0 68 8" fill="none" xmlns="http://www.w3.org/2000/svg">
<path d="M4.5747 4.33909V4.86786H0.71875V4.33909H4.5747ZM2.89061 2.20361V7.08134H2.37525V2.20361H2.89061ZM8.26218 1.02148V7.75302H7.75143V1.72981L6.23759 2.40621V1.87693L8.17475 1.02148H8.26218ZM17.2017 5.9725C17.2017 6.37719 17.1219 6.71905 16.9624 6.99861C16.8029 7.27765 16.5881 7.48916 16.3182 7.63313C16.0483 7.77448 15.7461 7.84516 15.4118 7.84516C15.0743 7.84516 14.7706 7.77448 14.5007 7.63313C14.2307 7.48916 14.016 7.27922 13.8565 7.0028C13.7 6.72375 13.6218 6.38033 13.6218 5.9725C13.6218 5.70864 13.6663 5.46624 13.7553 5.24531C13.8442 5.02438 13.9684 4.83434 14.128 4.67467C14.2875 4.51499 14.4746 4.39091 14.6893 4.30191C14.9071 4.20977 15.1449 4.16422 15.4025 4.16422C15.7431 4.16422 16.0483 4.24223 16.3182 4.39876C16.5912 4.5553 16.806 4.76838 16.9624 5.03799C17.1219 5.30814 17.2017 5.61964 17.2017 5.9725ZM16.6863 5.97668C16.6863 5.69136 16.6295 5.4432 16.516 5.2317C16.4056 5.01653 16.2538 4.8511 16.0605 4.73435C15.8673 4.61499 15.6479 4.5553 15.4025 4.5553C15.1541 4.5553 14.9332 4.61499 14.74 4.73435C14.5498 4.8511 14.401 5.01653 14.2936 5.2317C14.1862 5.4432 14.1326 5.69136 14.1326 5.97668C14.1326 6.26829 14.1862 6.51854 14.2936 6.72691C14.4041 6.93265 14.5544 7.09024 14.7446 7.2007C14.9378 7.30802 15.1617 7.36194 15.4164 7.36194C15.6648 7.36194 15.8841 7.30802 16.0743 7.2007C16.2645 7.09024 16.4133 6.93265 16.5206 6.72691C16.6311 6.52116 16.6863 6.27143 16.6863 5.97668ZM17.059 2.77896C17.059 3.10722 16.9854 3.39883 16.8382 3.65327C16.6909 3.9077 16.4931 4.10874 16.2446 4.25585C15.9961 4.40034 15.7154 4.47206 15.4025 4.47206C15.0896 4.47206 14.809 4.40034 14.5605 4.25585C14.312 4.10874 14.1157 3.9077 13.9715 3.65327C13.8304 3.39883 13.7599 3.10722 13.7599 2.77896C13.7599 2.38946 13.8304 2.05964 13.9715 1.7895C14.1157 1.51988 14.312 1.31414 14.5605 1.17331C14.809 1.03195 15.0896 0.961278 15.4025 0.961278C15.7185 0.961278 16.0007 1.03195 16.2492 1.17331C16.5007 1.31414 16.6986 1.51988 16.8428 1.7895C16.987 2.05964 17.059 2.38946 17.059 2.77896ZM16.5483 2.77425C16.5483 2.51353 16.4977 2.28371 16.3964 2.08424C16.2983 1.88478 16.1618 1.72824 15.9869 1.61464C15.8151 1.49841 15.6203 1.43978 15.4025 1.43978C15.1848 1.43978 14.99 1.4937 14.8182 1.60102C14.6495 1.70835 14.516 1.86174 14.4178 2.0612C14.3228 2.26067 14.2752 2.49835 14.2752 2.77425C14.2752 3.03811 14.3228 3.26846 14.4178 3.46479C14.513 3.65797 14.6464 3.80823 14.8182 3.91556C14.99 4.01974 15.1863 4.07208 15.4072 4.07208C15.6249 4.07208 15.8197 4.01974 15.9915 3.91556C16.1664 3.80823 16.3029 3.65797 16.401 3.46479C16.4992 3.26846 16.5483 3.03811 16.5483 2.77425ZM22.196 3.82812V4.95057C22.196 5.44792 22.1561 5.87879 22.0763 6.24369C21.9996 6.60597 21.8861 6.9049 21.7358 7.14101C21.5886 7.37712 21.4076 7.55356 21.1928 7.67031C20.9781 7.78653 20.7343 7.84516 20.4613 7.84516C20.2465 7.84516 20.0487 7.80799 19.8677 7.7347C19.6867 7.66088 19.5241 7.54884 19.38 7.39859C19.2388 7.2452 19.1177 7.05359 19.0164 6.82376C18.9183 6.59341 18.8431 6.32484 18.791 6.01857C18.7419 5.70864 18.7173 5.35264 18.7173 4.95057V3.82812C18.7173 3.33705 18.7572 2.9109 18.837 2.54914C18.9167 2.18686 19.0318 1.88793 19.1821 1.65181C19.3355 1.4157 19.518 1.24084 19.7296 1.12723C19.9444 1.01362 20.1867 0.957092 20.4566 0.957092C20.6744 0.957092 20.8738 0.993735 21.0548 1.06703C21.2358 1.14085 21.3969 1.25288 21.5379 1.40313C21.6791 1.55025 21.7987 1.73766 21.8969 1.96435C21.995 2.19156 22.0686 2.4617 22.1177 2.77425C22.1699 3.08418 22.196 3.43547 22.196 3.82812ZM21.6852 5.01967V3.7543C21.6852 3.45066 21.6683 3.17633 21.6346 2.93079C21.6039 2.68212 21.5564 2.46589 21.4919 2.28213C21.4275 2.09471 21.3447 1.93871 21.2435 1.81254C21.1423 1.68689 21.0257 1.59318 20.8938 1.53192C20.765 1.46753 20.6177 1.4356 20.452 1.4356C20.2496 1.4356 20.0716 1.48427 19.9183 1.5827C19.768 1.6806 19.6407 1.82825 19.5364 2.02457C19.4351 2.21775 19.3584 2.46015 19.3063 2.75123C19.2542 3.03969 19.2281 3.37579 19.2281 3.75902V5.01967C19.2281 5.3207 19.2449 5.59503 19.2787 5.84371C19.3124 6.08872 19.3615 6.30652 19.4259 6.49708C19.4935 6.68398 19.5763 6.84366 19.6744 6.97559C19.7756 7.10438 19.8907 7.20069 20.0195 7.26509C20.1514 7.32948 20.2986 7.36194 20.4613 7.36194C20.6668 7.36194 20.8462 7.31117 20.9996 7.21013C21.153 7.10595 21.2803 6.95411 21.3815 6.75464C21.4828 6.55518 21.5579 6.31122 21.607 6.02276C21.6591 5.73168 21.6852 5.39713 21.6852 5.01967ZM27.2501 3.82812V4.95057C27.2501 5.44792 27.2103 5.87879 27.1302 6.24369C27.0538 6.60597 26.9402 6.9049 26.7899 7.14101C26.6428 7.37712 26.4617 7.55356 26.247 7.67031C26.0324 7.78653 25.7884 7.84516 25.5151 7.84516C25.3005 7.84516 25.1026 7.80799 24.922 7.7347C24.7408 7.66088 24.578 7.54884 24.4341 7.39859C24.2927 7.2452 24.1718 7.05359 24.0707 6.82376C23.9723 6.59341 23.8974 6.32484 23.8451 6.01857C23.7959 5.70864 23.7713 5.35264 23.7713 4.95057V3.82812C23.7713 3.33705 23.8116 2.9109 23.8912 2.54914C23.9707 2.18686 24.0859 1.88793 24.2362 1.65181C24.3896 1.4157 24.5723 1.24084 24.7838 1.12723C24.9984 1.01362 25.2408 0.957092 25.511 0.957092C25.7287 0.957092 25.9277 0.993735 26.1088 1.06703C26.29 1.14085 26.4512 1.25288 26.592 1.40313C26.7334 1.55025 26.8528 1.73766 26.9512 1.96435C27.0491 2.19156 27.1229 2.4617 27.1716 2.77425C27.2239 3.08418 27.2501 3.43547 27.2501 3.82812ZM26.7392 5.01967V3.7543C26.7392 3.45066 26.7224 3.17633 26.6889 2.93079C26.658 2.68212 26.6104 2.46589 26.546 2.28213C26.4816 2.09471 26.3989 1.93871 26.2978 1.81254C26.1963 1.68689 26.08 1.59318 25.9481 1.53192C25.8188 1.46753 25.6717 1.4356 25.5062 1.4356C25.3036 1.4356 25.1256 1.48427 24.9722 1.5827C24.822 1.6806 24.6948 1.82825 24.5906 2.02457C24.489 2.21775 24.4126 2.46015 24.3602 2.75123C24.3084 3.03969 24.2822 3.37579 24.2822 3.75902V5.01967C24.2822 5.3207 24.299 5.59503 24.333 5.84371C24.3665 6.08872 24.4157 6.30652 24.4801 6.49708C24.5477 6.68398 24.6304 6.84366 24.7283 6.97559C24.8298 7.10438 24.945 7.20069 25.0738 7.26509C25.2057 7.32948 25.3529 7.36194 25.5151 7.36194C25.7209 7.36194 25.9005 7.31117 26.0539 7.21013C26.2073 7.10595 26.3345 6.95411 26.4355 6.75464C26.5371 6.55518 26.6119 6.31122 26.6612 6.02276C26.713 5.73168 26.7392 5.39713 26.7392 5.01967ZM33.6728 1.02148V7.75302H33.1618V1.72981L31.6478 2.40621V1.87693L33.5854 1.02148H33.6728ZM38.7269 1.02148V7.75302H38.216V1.72981L36.7019 2.40621V1.87693L38.6395 1.02148H38.7269ZM43.7806 1.02148V7.75302H43.2701V1.72981L41.7561 2.40621V1.87693L43.6931 1.02148H43.7806ZM52.6607 3.82812V4.95057C52.6607 5.44792 52.6204 5.87879 52.5408 6.24369C52.4644 6.60597 52.3507 6.9049 52.2005 7.14101C52.0529 7.37712 51.8722 7.55356 51.6576 7.67031C51.4424 7.78653 51.199 7.84516 50.9257 7.84516C50.711 7.84516 50.5132 7.80799 50.332 7.7347C50.1514 7.66088 49.9886 7.54884 49.8446 7.39859C49.7033 7.2452 49.5823 7.05359 49.4808 6.82376C49.3829 6.59341 49.3075 6.32484 49.2556 6.01857C49.2064 5.70864 49.1818 5.35264 49.1818 4.95057V3.82812C49.1818 3.33705 49.2216 2.9109 49.3017 2.54914C49.3813 2.18686 49.4965 1.88793 49.6467 1.65181C49.8001 1.4157 49.9823 1.24084 50.1943 1.12723C50.409 1.01362 50.6514 0.957092 50.921 0.957092C51.1388 0.957092 51.3382 0.993735 51.5194 1.06703C51.7005 1.14085 51.8612 1.25288 52.0026 1.40313C52.1434 1.55025 52.2633 1.73766 52.3612 1.96435C52.4596 2.19156 52.5329 2.4617 52.5821 2.77425C52.6345 3.08418 52.6607 3.43547 52.6607 3.82812ZM52.1497 5.01967V3.7543C52.1497 3.45066 52.133 3.17633 52.0989 2.93079C52.0686 2.68212 52.0209 2.46589 51.9565 2.28213C51.8921 2.09471 51.8094 1.93871 51.7078 1.81254C51.6068 1.68689 51.4901 1.59318 51.3581 1.53192C51.2293 1.46753 51.0822 1.4356 50.9168 1.4356C50.7142 1.4356 50.5362 1.48427 50.3828 1.5827C50.2325 1.6806 50.1053 1.82825 50.0011 2.02457C49.8996 2.21775 49.8231 2.46015 49.7708 2.75123C49.7184 3.03969 49.6928 3.37579 49.6928 3.75902V5.01967C49.6928 5.3207 49.7095 5.59503 49.743 5.84371C49.7771 6.08872 49.8263 6.30652 49.8907 6.49708C49.9577 6.68398 50.0409 6.84366 50.1388 6.97559C50.2404 7.10438 50.355 7.20069 50.4838 7.26509C50.6158 7.32948 50.7634 7.36194 50.9257 7.36194C51.1314 7.36194 51.3105 7.31117 51.4639 7.21013C51.6173 7.10595 51.745 6.95411 51.8461 6.75464C51.9471 6.55518 52.0225 6.31122 52.0717 6.02276C52.1235 5.73168 52.1497 5.39713 52.1497 5.01967ZM57.7143 3.82812V4.95057C57.7143 5.44792 57.6745 5.87879 57.5949 6.24369C57.518 6.60597 57.4049 6.9049 57.2546 7.14101C57.107 7.37712 56.9264 7.55356 56.7112 7.67031C56.4966 7.78653 56.2531 7.84516 55.9799 7.84516C55.7652 7.84516 55.5673 7.80799 55.3862 7.7347C55.2056 7.66088 55.0427 7.54884 54.8988 7.39859C54.7574 7.2452 54.6365 7.05359 54.5349 6.82376C54.437 6.59341 54.3616 6.32484 54.3098 6.01857C54.2606 5.70864 54.236 5.35264 54.236 4.95057V3.82812C54.236 3.33705 54.2758 2.9109 54.3553 2.54914C54.4354 2.18686 54.5506 1.88793 54.7009 1.65181C54.8543 1.4157 55.0364 1.24084 55.2485 1.12723C55.4631 1.01362 55.7055 0.957092 55.9751 0.957092C56.1929 0.957092 56.3924 0.993735 56.5735 1.06703C56.7547 1.14085 56.9154 1.25288 57.0567 1.40313C57.1976 1.55025 57.3175 1.73766 57.4154 1.96435C57.5138 2.19156 57.5871 2.4617 57.6363 2.77425C57.6887 3.08418 57.7143 3.43547 57.7143 3.82812ZM57.2039 5.01967V3.7543C57.2039 3.45066 57.1871 3.17633 57.1531 2.93079C57.1227 2.68212 57.0751 2.46589 57.0107 2.28213C56.9463 2.09471 56.8636 1.93871 56.762 1.81254C56.661 1.68689 56.5442 1.59318 56.4123 1.53192C56.2835 1.46753 56.1364 1.4356 55.9704 1.4356C55.7683 1.4356 55.5903 1.48427 55.437 1.5827C55.2867 1.6806 55.1595 1.82825 55.0548 2.02457C54.9537 2.21775 54.8773 2.46015 54.8249 2.75123C54.7726 3.03969 54.7469 3.37579 54.7469 3.75902V5.01967C54.7469 5.3207 54.7637 5.59503 54.7972 5.84371C54.8312 6.08872 54.8799 6.30652 54.9443 6.49708C55.0118 6.68398 55.0951 6.84366 55.193 6.97559C55.294 7.10438 55.4092 7.20069 55.538 7.26509C55.6699 7.32948 55.817 7.36194 55.9799 7.36194C56.1856 7.36194 56.3646 7.31117 56.518 7.21013C56.6714 7.10595 56.7986 6.95411 56.9002 6.75464C57.0013 6.55518 57.0766 6.31122 57.1253 6.02276C57.1777 5.73168 57.2039 5.39713 57.2039 5.01967ZM62.7685 3.82812V4.95057C62.7685 5.44792 62.7287 5.87879 62.6491 6.24369C62.5721 6.60597 62.459 6.9049 62.3083 7.14101C62.1612 7.37712 61.9805 7.55356 61.7654 7.67031C61.5507 7.78653 61.3068 7.84516 61.034 7.84516C60.8194 7.84516 60.6215 7.80799 60.4403 7.7347C60.2592 7.66088 60.0969 7.54884 59.9524 7.39859C59.8116 7.2452 59.6906 7.05359 59.5891 6.82376C59.4912 6.59341 59.4158 6.32484 59.3634 6.01857C59.3147 5.70864 59.2901 5.35264 59.2901 4.95057V3.82812C59.2901 3.33705 59.3299 2.9109 59.4095 2.54914C59.4896 2.18686 59.6042 1.88793 59.755 1.65181C59.9084 1.4157 60.0906 1.24084 60.3021 1.12723C60.5173 1.01362 60.7597 0.957092 61.0293 0.957092C61.2471 0.957092 61.4465 0.993735 61.6277 1.06703C61.8083 1.14085 61.9696 1.25288 62.1109 1.40313C62.2517 1.55025 62.3716 1.73766 62.4695 1.96435C62.5679 2.19156 62.6412 2.4617 62.6904 2.77425C62.7428 3.08418 62.7685 3.43547 62.7685 3.82812ZM62.258 5.01967V3.7543C62.258 3.45066 62.2413 3.17633 62.2072 2.93079C62.1769 2.68212 62.1292 2.46589 62.0648 2.28213C62.0004 2.09471 61.9172 1.93871 61.8162 1.81254C61.7151 1.68689 61.5984 1.59318 61.4664 1.53192C61.3377 1.46753 61.1905 1.4356 61.0246 1.4356C60.8225 1.4356 60.6445 1.48427 60.4911 1.5827C60.3408 1.6806 60.2136 1.82825 60.1089 2.02457C60.0079 2.21775 59.9309 2.46015 59.8791 2.75123C59.8267 3.03969 59.8006 3.37579 59.8006 3.75902V5.01967C59.8006 5.3207 59.8178 5.59503 59.8513 5.84371C59.8854 6.08872 59.9341 6.30652 59.9985 6.49708C60.066 6.68398 60.1487 6.84366 60.2471 6.97559C60.3482 7.10438 60.4634 7.20069 60.5921 7.26509C60.7241 7.32948 60.8712 7.36194 61.034 7.36194C61.2392 7.36194 61.4188 7.31117 61.5722 7.21013C61.7256 7.10595 61.8528 6.95411 61.9544 6.75464C62.0554 6.55518 62.1308 6.31122 62.1795 6.02276C62.2318 5.73168 62.258 5.39713 62.258 5.01967ZM67.8226 3.82812V4.95057C67.8226 5.44792 67.7828 5.87879 67.7032 6.24369C67.6263 6.60597 67.5132 6.9049 67.3624 7.14101C67.2153 7.37712 67.0342 7.55356 66.8195 7.67031C66.6049 7.78653 66.3609 7.84516 66.0882 7.84516C65.8735 7.84516 65.6756 7.80799 65.4945 7.7347C65.3133 7.66088 65.151 7.54884 65.0065 7.39859C64.8657 7.2452 64.7443 7.05359 64.6432 6.82376C64.5453 6.59341 64.4699 6.32484 64.4176 6.01857C64.3689 5.70864 64.3443 5.35264 64.3443 4.95057V3.82812C64.3443 3.33705 64.3841 2.9109 64.4636 2.54914C64.5437 2.18686 64.6584 1.88793 64.8087 1.65181C64.962 1.4157 65.1448 1.24084 65.3563 1.12723C65.5714 1.01362 65.8133 0.957092 66.0834 0.957092C66.3012 0.957092 66.5007 0.993735 66.6818 1.06703C66.8625 1.14085 67.0237 1.25288 67.1645 1.40313C67.3059 1.55025 67.4258 1.73766 67.5237 1.96435C67.6221 2.19156 67.6954 2.4617 67.7446 2.77425C67.797 3.08418 67.8226 3.43547 67.8226 3.82812ZM67.3122 5.01967V3.7543C67.3122 3.45066 67.2949 3.17633 67.2614 2.93079C67.2305 2.68212 67.1834 2.46589 67.119 2.28213C67.0546 2.09471 66.9714 1.93871 66.8703 1.81254C66.7693 1.68689 66.6525 1.59318 66.5206 1.53192C66.3918 1.46753 66.2447 1.4356 66.0787 1.4356C65.8766 1.4356 65.6987 1.48427 65.5453 1.5827C65.395 1.6806 65.2673 1.82825 65.1631 2.02457C65.062 2.21775 64.9851 2.46015 64.9333 2.75123C64.8809 3.03969 64.8547 3.37579 64.8547 3.75902V5.01967C64.8547 5.3207 64.872 5.59503 64.9055 5.84371C64.939 6.08872 64.9882 6.30652 65.0526 6.49708C65.1202 6.68398 65.2029 6.84366 65.3013 6.97559C65.4023 7.10438 65.5175 7.20069 65.6463 7.26509C65.7782 7.32948 65.9253 7.36194 66.0882 7.36194C66.2934 7.36194 66.473 7.31117 66.6263 7.21013C66.7797 7.10595 66.907 6.95411 67.0085 6.75464C67.1096 6.55518 67.185 6.31122 67.2336 6.02276C67.286 5.73168 67.3122 5.39713 67.3122 5.01967Z" fill="#4D4D4D"/>
</svg>
