<svg width="34" height="37" viewBox="0 0 34 37" fill="none" xmlns="http://www.w3.org/2000/svg">
<path d="M15.0438 36.1657C15.3558 35.9697 15.7872 35.4999 16.7709 34.2848C18.386 32.2895 20.5696 29.2876 22.6386 26.2187C30.1371 15.0956 33.1636 8.8195 33.0244 4.68289C32.9935 3.77362 32.917 3.40291 32.6343 2.78996C32.1401 1.72039 31.3166 1.16733 29.7397 0.845834C29.1612 0.727988 28.9356 0.709612 28.0346 0.707204C27.2886 0.705162 26.8237 0.730972 26.3839 0.798664C20.6696 1.67851 12.547 6.29112 6.68665 11.984C3.88786 14.7033 2.10629 17.1122 1.28487 19.2884C0.90322 20.2995 0.77392 21.4626 0.957156 22.233C1.25976 23.504 2.47643 24.5344 4.6564 25.366C6.0893 25.9127 7.83685 26.2863 11.233 26.7722C12.0534 26.8894 12.9481 27.0442 13.2213 27.1161C13.4951 27.1879 13.7402 27.2467 13.7658 27.2467C13.8177 27.2467 13.9962 26.9332 13.9632 26.9007C13.9182 26.8558 12.2706 26.5561 11.1 26.3797C10.4116 26.276 9.609 26.154 9.31583 26.1085C6.59871 25.6866 4.24335 24.7113 3.1387 23.5508C2.53402 22.9159 2.30941 22.3406 2.30627 21.4195C2.30418 20.7946 2.37119 20.3883 2.59002 19.7079C4.225 14.6145 12.6852 6.96422 20.8329 3.21119C23.7092 1.88635 26.0122 1.19634 28.0917 1.0365C29.068 0.961482 29.3722 1.01054 30.0874 1.35853C30.88 1.74411 31.6522 2.59484 31.8784 3.33134C31.9778 3.65583 31.9867 3.77571 31.9564 4.37269C31.925 4.98669 31.804 5.94512 31.6543 6.76528C31.4564 7.85097 30.6015 10.2896 29.9172 11.7209C29.3921 12.8198 28.2964 14.9181 27.6326 16.0966C27.4205 16.4736 27.11 17.0311 26.9436 17.3355C26.7766 17.64 26.3368 18.4072 25.9661 19.0405L25.2918 20.1919L24.3856 20.6257C22.959 21.308 21.9831 22.0004 20.8172 23.1577C19.0126 24.9483 17.2038 27.5975 15.7029 30.6472C14.5925 32.9028 13.9731 34.7007 13.9548 35.7193C13.948 36.1011 14.0192 36.2036 14.3318 36.2634C14.6919 36.3324 14.8024 36.3173 15.0438 36.1657ZM14.827 34.4193C15.3013 32.5806 16.8787 29.3396 18.42 27.0359C20.1235 24.4904 21.7235 22.7793 23.4548 21.6511C23.8987 21.3621 24.7861 20.8925 24.7861 20.9467C24.7861 21.0384 23.071 23.601 22.0339 25.0589C20.7513 26.8621 18.9215 29.3681 17.7546 30.9196C17.0965 31.7944 16.1814 33.0162 15.7207 33.6347C15.26 34.2532 14.8474 34.8067 14.804 34.8647C14.6956 35.0092 14.7008 34.9095 14.827 34.4193Z" fill="#F06111"/>
</svg>
