<svg width="101" height="10" viewBox="0 0 101 10" fill="none" xmlns="http://www.w3.org/2000/svg">
<path d="M3.07141 5.34585V0.642981H3.59599V5.34585C3.59599 5.79661 3.52081 6.17668 3.3705 6.48661C3.22323 6.79654 3.02078 7.03265 2.7631 7.19547C2.50542 7.35462 2.21251 7.43472 1.88425 7.43472C1.54375 7.43472 1.24314 7.36405 0.982423 7.22269C0.724741 7.08187 0.52381 6.86721 0.37963 6.57875C0.238539 6.29028 0.167969 5.92854 0.167969 5.49296H0.701705C0.701705 5.81179 0.749296 6.08036 0.844369 6.29815C0.939442 6.51279 1.07441 6.67404 1.24927 6.78137C1.42721 6.88869 1.63888 6.94208 1.88425 6.94208C2.10513 6.94208 2.30454 6.88241 2.48244 6.76304C2.66342 6.64315 2.80608 6.46514 2.91037 6.22903C3.01775 5.98978 3.07141 5.69556 3.07141 5.34585ZM7.41691 1.04819L5.48436 7.34259H4.9414L7.0718 0.642981H7.44451L7.41691 1.04819ZM9.14702 7.34259L7.21446 1.04819L7.19143 0.642981H7.55957L9.69458 7.34259H9.14702ZM8.84793 4.97309V5.46992H5.82486V4.97309H8.84793ZM11.3299 0.642981H11.8591L13.8882 6.53269L15.9266 0.642981H16.4511L14.0953 7.34259H13.6904L11.3299 0.642981ZM11.1688 0.642981H11.6336L11.698 4.42548V7.34259H11.1688V0.642981ZM16.1567 0.642981H16.6214V7.34259H16.0969V4.42548L16.1567 0.642981ZM22.2001 6.85047V7.34259H19.0711V6.85047H22.2001ZM19.2184 0.642981V7.34259H18.6892V0.642981H19.2184ZM21.8089 3.63861V4.13544H19.0711V3.63861H21.8089ZM22.177 0.642981V1.13563H19.0711V0.642981H22.177ZM27.001 5.68614C27.001 5.505 26.9764 5.34427 26.9272 5.20292C26.8785 5.05895 26.7969 4.93016 26.6838 4.81655C26.5702 4.70294 26.4152 4.59719 26.2189 4.49877C26.0257 4.39773 25.7865 4.29827 25.5011 4.19984C25.219 4.10456 24.964 4.00037 24.7373 3.88676C24.5132 3.77368 24.3201 3.64333 24.1572 3.4957C23.9981 3.34858 23.8751 3.17686 23.7892 2.98054C23.7065 2.78421 23.6651 2.55439 23.6651 2.29053C23.6651 2.02981 23.7112 1.79317 23.8033 1.58167C23.8981 1.36702 24.03 1.18274 24.1991 1.02935C24.3677 0.875955 24.5672 0.758163 24.797 0.675446C25.0273 0.592205 25.2818 0.550842 25.5608 0.550842C25.9597 0.550842 26.3032 0.641403 26.5917 0.822545C26.8833 1.00054 27.1068 1.24137 27.2633 1.54502C27.4199 1.84552 27.4979 2.18164 27.4979 2.55282H26.9733C26.9733 2.26122 26.9183 2.00206 26.8079 1.77484C26.7005 1.54816 26.5409 1.37017 26.3294 1.24138C26.1205 1.10945 25.866 1.04347 25.5655 1.04347C25.265 1.04347 25.0116 1.10002 24.8064 1.21363C24.6038 1.32409 24.452 1.47277 24.3509 1.66019C24.2494 1.84395 24.1991 2.04813 24.1991 2.27168C24.1991 2.43135 24.2232 2.57846 24.2724 2.71353C24.3216 2.8486 24.4028 2.97268 24.5164 3.08629C24.6331 3.19989 24.7865 3.30721 24.9766 3.40825C25.1666 3.50668 25.397 3.59883 25.6666 3.68469C25.9702 3.78259 26.2372 3.89148 26.4676 4.01136C26.7005 4.12759 26.8953 4.26581 27.0518 4.42548C27.211 4.58202 27.3309 4.76263 27.4104 4.96838C27.4937 5.1736 27.535 5.41023 27.535 5.67671C27.535 5.95313 27.4874 6.19972 27.3921 6.41751C27.2974 6.63268 27.1623 6.81644 26.9874 6.96983C26.8126 7.12008 26.6068 7.23526 26.3707 7.31483C26.1346 7.39493 25.8739 7.43472 25.5886 7.43472C25.3399 7.43472 25.0902 7.39651 24.8384 7.31955C24.5902 7.24311 24.363 7.12322 24.1572 6.96093C23.9552 6.79811 23.7923 6.58976 23.6698 6.3348C23.5468 6.08036 23.4855 5.7767 23.4855 5.42385H24.0148C24.0148 5.70289 24.0609 5.94057 24.1531 6.13689C24.2478 6.33007 24.3708 6.48661 24.5211 6.6065C24.6713 6.72272 24.8399 6.80858 25.0273 6.86408C25.2142 6.91643 25.4027 6.94208 25.5933 6.94208C25.8812 6.94208 26.1299 6.89026 26.3383 6.78608C26.5503 6.68137 26.7126 6.53582 26.8262 6.34892C26.9429 6.15836 27.001 5.93743 27.001 5.68614ZM35.2576 4.98199C35.2456 5.27045 35.2084 5.5605 35.1472 5.85158C35.0891 6.14004 34.9985 6.4039 34.876 6.64315C34.7561 6.8824 34.6011 7.07401 34.4111 7.21851C34.2242 7.36248 33.9985 7.43472 33.7347 7.43472C33.5692 7.43472 33.4216 7.39913 33.2928 7.32897C33.1672 7.2583 33.063 7.15726 32.9803 7.02533C32.9002 6.89026 32.8421 6.72901 32.8054 6.54211C32.7714 6.35155 32.7641 6.14004 32.7824 5.90707L32.9756 3.28418H33.4033L33.2054 5.90707C33.1871 6.1526 33.1949 6.34997 33.2284 6.50075C33.2656 6.64786 33.3143 6.75989 33.3755 6.83633C33.4405 6.91329 33.509 6.96512 33.5829 6.99287C33.6593 7.01747 33.7284 7.02952 33.7897 7.02952C33.9556 7.02952 34.1027 6.97769 34.2315 6.8735C34.3634 6.7688 34.4739 6.62483 34.5629 6.44055C34.655 6.25365 34.7273 6.03585 34.7791 5.78717C34.8315 5.53588 34.8618 5.26731 34.8713 4.98199C34.8896 4.52181 34.8713 4.09723 34.8158 3.70772C34.7608 3.31769 34.6687 2.97112 34.5399 2.66747C34.4111 2.36068 34.2425 2.10153 34.0336 1.89002C33.8253 1.67852 33.5734 1.51727 33.2792 1.4068C32.9876 1.29634 32.6536 1.24138 32.2761 1.24138C31.9447 1.24138 31.6364 1.30105 31.3511 1.42041C31.0657 1.5403 30.8066 1.71203 30.5736 1.9361C30.3406 2.16017 30.138 2.43136 29.9663 2.75071C29.7977 3.06954 29.6627 3.42973 29.5611 3.8318C29.4632 4.23387 29.4051 4.6705 29.3862 5.14324C29.3679 5.60029 29.3894 6.02643 29.4506 6.42222C29.515 6.81801 29.6182 7.17401 29.759 7.4897C29.9004 7.80905 30.0768 8.08024 30.2883 8.30431C30.5029 8.53152 30.7516 8.7048 31.0338 8.82417C31.3191 8.94667 31.6364 9.00846 31.9861 9.00846C32.2133 9.00846 32.4416 8.97443 32.6719 8.90689C32.9049 8.8425 33.1012 8.75507 33.2609 8.6446L33.385 9.01736C33.2132 9.14929 32.9923 9.25085 32.7222 9.321C32.4526 9.39167 32.2007 9.42675 31.9678 9.42675C31.5751 9.42675 31.216 9.36236 30.8909 9.23357C30.5689 9.10793 30.2836 8.9226 30.0354 8.67707C29.7899 8.43467 29.5841 8.13887 29.4187 7.78915C29.2528 7.44205 29.1318 7.04679 29.0554 6.60179C28.9784 6.15679 28.9475 5.67096 28.9632 5.14324C28.9816 4.62757 29.046 4.14906 29.1564 3.70772C29.27 3.26272 29.4234 2.86222 29.6166 2.50674C29.8098 2.1476 30.0396 1.84239 30.3066 1.59109C30.5736 1.33614 30.8741 1.14138 31.2087 1.00631C31.5427 0.868622 31.9049 0.799522 32.2945 0.799522C32.7023 0.799522 33.0693 0.862338 33.3944 0.987985C33.7195 1.11416 34.0033 1.29634 34.2457 1.53559C34.4875 1.7717 34.6854 2.06174 34.8388 2.40518C34.9953 2.746 35.1089 3.13236 35.1796 3.5648C35.2503 3.99723 35.276 4.46998 35.2576 4.98199ZM31.1212 5.37778C31.0998 5.6139 31.0982 5.8301 31.1165 6.02643C31.1348 6.21961 31.172 6.38872 31.227 6.53269C31.2819 6.67404 31.3558 6.78293 31.4479 6.85937C31.5427 6.93318 31.6531 6.96983 31.7793 6.96983C31.8772 6.96983 31.9756 6.94994 32.0735 6.91016C32.1751 6.86723 32.273 6.79184 32.3683 6.68451C32.4662 6.57719 32.5567 6.43478 32.6395 6.25678C32.7222 6.07564 32.7929 5.84738 32.8515 5.57096L33.0536 5.85158C32.9923 6.1123 32.9143 6.34108 32.819 6.5374C32.7269 6.73372 32.6211 6.89916 32.5018 7.03423C32.3819 7.16616 32.2515 7.26615 32.1102 7.33316C31.9725 7.40069 31.828 7.43472 31.6777 7.43472C31.494 7.43472 31.3327 7.38551 31.1945 7.28761C31.0568 7.18919 30.9448 7.04941 30.8589 6.86879C30.7731 6.68765 30.7134 6.47144 30.6794 6.21962C30.6485 5.96833 30.6459 5.68771 30.6699 5.37778C30.6945 5.0621 30.7406 4.77048 30.8082 4.50348C30.8788 4.23648 30.9663 3.99723 31.0704 3.78572C31.1778 3.57422 31.2992 3.39465 31.4338 3.24754C31.5688 3.09991 31.7133 2.9884 31.8667 2.91144C32.0201 2.83186 32.1793 2.79207 32.3452 2.79207C32.6091 2.79207 32.8159 2.84232 32.9661 2.94389C33.1195 3.04179 33.2656 3.15539 33.4033 3.28418L33.1274 3.59726C33.0478 3.49255 32.9447 3.40407 32.819 3.33026C32.6934 3.25644 32.5463 3.21979 32.3772 3.21979C32.2269 3.21979 32.0814 3.26429 31.94 3.35329C31.8023 3.43915 31.6762 3.57264 31.5631 3.75379C31.4526 3.93126 31.3573 4.15534 31.2778 4.42548C31.2008 4.6951 31.149 5.01288 31.1212 5.37778ZM37.2245 0.642981H37.7533L39.7825 6.53269L41.8211 0.642981H42.3457L39.9898 7.34259H39.5846L37.2245 0.642981ZM37.0633 0.642981H37.5282L37.5926 4.42548V7.34259H37.0633V0.642981ZM42.051 0.642981H42.5158V7.34259H41.9913V4.42548L42.051 0.642981ZM46.5575 1.04819L44.6251 7.34259H44.0822L46.2125 0.642981H46.5852L46.5575 1.04819ZM48.2878 7.34259L46.3554 1.04819L46.3324 0.642981H46.7004L48.8354 7.34259H48.2878ZM47.9888 4.97309V5.46992H44.9654V4.97309H47.9888ZM50.3002 0.642981H52.1362C52.532 0.642981 52.8723 0.719941 53.1576 0.873335C53.4461 1.02359 53.667 1.24556 53.8204 1.5403C53.9769 1.83191 54.055 2.19053 54.055 2.61721C54.055 2.9329 54 3.21979 53.8895 3.47737C53.7791 3.73495 53.6257 3.95011 53.4293 4.12183C53.2362 4.29355 53.0089 4.41134 52.7482 4.47573L52.5734 4.55427H50.6593L50.6499 4.06163H52.2237C52.5153 4.06163 52.7576 3.99408 52.9508 3.85954C53.144 3.72132 53.288 3.54333 53.3833 3.32554C53.4817 3.10461 53.5304 2.8685 53.5304 2.61721C53.5304 2.31356 53.477 2.05128 53.3697 1.83035C53.2649 1.60942 53.1089 1.43926 52.9 1.31938C52.6948 1.19687 52.4399 1.13563 52.1362 1.13563H50.8295V7.34259H50.3002V0.642981ZM53.7377 7.34259L52.2975 4.34276L52.8587 4.33804L54.2989 7.2829V7.34259H53.7377ZM57.5171 0.642981V7.34259H56.9925V0.642981H57.5171ZM59.4222 0.642981V1.13563H55.0921V0.642981H59.4222ZM61.6048 0.642981V7.34259H61.0713V0.642981H61.6048ZM67.9657 0.642981V7.34259H67.4369L64.2847 1.63244V7.34259H63.7512V0.642981H64.2847L67.4411 6.35311V0.642981H67.9657ZM73.5491 6.85047V7.34259H70.42V6.85047H73.5491ZM70.5676 0.642981V7.34259H70.0383V0.642981H70.5676ZM73.158 3.63861V4.13544H70.42V3.63861H73.158ZM73.5261 0.642981V1.13563H70.42V0.642981H73.5261ZM78.9022 6.85047V7.34259H75.0417V6.85047H78.9022ZM78.7781 1.05708L75.1752 7.34259H74.8438V6.90073L78.442 0.642981H78.7781V1.05708ZM78.5525 0.642981V1.13563H74.9359V0.642981H78.5525ZM80.4733 7.00229C80.4733 6.89497 80.5068 6.80282 80.5743 6.72586C80.6419 6.64943 80.7372 6.61121 80.8597 6.61121C80.9822 6.61121 81.079 6.64943 81.1497 6.72586C81.2204 6.79968 81.2554 6.89183 81.2554 7.00229C81.2554 7.10648 81.2204 7.19705 81.1497 7.27349C81.079 7.3473 80.9822 7.38395 80.8597 7.38395C80.7372 7.38395 80.6419 7.3473 80.5743 7.27349C80.5068 7.19705 80.4733 7.10648 80.4733 7.00229ZM86.8064 5.24899H87.3357C87.3048 5.74897 87.2054 6.1615 87.0368 6.48661C86.8677 6.80858 86.6331 7.04836 86.3326 7.20437C86.0348 7.3609 85.6746 7.43944 85.251 7.43944C84.9291 7.43944 84.639 7.37609 84.3814 7.25045C84.1239 7.1248 83.9029 6.94209 83.7192 6.70284C83.538 6.46359 83.3983 6.17564 83.3004 5.83797C83.2051 5.49767 83.1574 5.11391 83.1574 4.68776V3.25226C83.1574 2.83186 83.2051 2.45596 83.3004 2.12456C83.3983 1.79055 83.5396 1.50681 83.7234 1.27332C83.9108 1.0372 84.1349 0.857625 84.3956 0.735119C84.6589 0.612613 84.9584 0.550842 85.2924 0.550842C85.6976 0.550842 86.0457 0.627802 86.3373 0.781197C86.6316 0.934591 86.863 1.17227 87.0321 1.49424C87.2038 1.81621 87.3048 2.23189 87.3357 2.74128H86.8064C86.7787 2.33031 86.7054 2.0005 86.5855 1.75182C86.4661 1.50367 86.2986 1.32409 86.084 1.21363C85.8725 1.10002 85.6086 1.04347 85.2924 1.04347C85.0317 1.04347 84.8018 1.09374 84.6024 1.1953C84.4061 1.2932 84.239 1.4377 84.1008 1.62775C83.9658 1.81465 83.8631 2.045 83.7925 2.31775C83.7218 2.5879 83.6867 2.89625 83.6867 3.24283V4.68776C83.6867 5.02805 83.7207 5.338 83.7878 5.61704C83.8553 5.89294 83.9537 6.13114 84.0825 6.33008C84.2144 6.52955 84.3767 6.68294 84.5704 6.79027C84.7668 6.89497 84.9935 6.94679 85.251 6.94679C85.5824 6.94679 85.8573 6.89497 86.0751 6.79027C86.2928 6.68608 86.4614 6.51122 86.5808 6.26568C86.7007 6.01753 86.7755 5.67829 86.8064 5.24899ZM93.2731 3.27057V4.7197C93.2731 5.15842 93.2228 5.54792 93.1212 5.88874C93.0233 6.22589 92.8789 6.50965 92.6888 6.74C92.5019 6.96983 92.2747 7.1447 92.0077 7.26459C91.7438 7.38081 91.4449 7.43944 91.1104 7.43944C90.7821 7.43944 90.4847 7.38081 90.2178 7.26459C89.9508 7.1447 89.7225 6.96983 89.5324 6.74C89.3419 6.50965 89.1948 6.22589 89.0906 5.88874C88.9895 5.54792 88.9388 5.15842 88.9388 4.7197V3.27057C88.9388 2.82871 88.9895 2.43764 89.0906 2.09683C89.1916 1.75653 89.3361 1.47278 89.523 1.24556C89.7131 1.01888 89.9418 0.847153 90.2089 0.730406C90.4753 0.611041 90.7732 0.550842 91.1015 0.550842C91.4386 0.550842 91.7407 0.611041 92.0077 0.730406C92.2747 0.847153 92.5019 1.01888 92.6888 1.24556C92.8789 1.47278 93.0233 1.75653 93.1212 2.09683C93.2228 2.43764 93.2731 2.82871 93.2731 3.27057ZM92.7485 4.7197V3.26116C92.7485 2.89626 92.7118 2.57585 92.638 2.29943C92.5679 2.02353 92.4632 1.79318 92.3255 1.60942C92.1873 1.42514 92.0155 1.28744 91.8098 1.1953C91.6046 1.10316 91.3685 1.05708 91.1015 1.05708C90.8439 1.05708 90.612 1.10316 90.4067 1.1953C90.2041 1.28744 90.0324 1.42671 89.8911 1.61413C89.7534 1.79789 89.6471 2.02824 89.5738 2.30414C89.5 2.5769 89.4633 2.89626 89.4633 3.26116V4.7197C89.4633 5.08774 89.5 5.41024 89.5738 5.68614C89.6502 5.9589 89.7591 6.18925 89.9005 6.37615C90.0413 6.56043 90.213 6.69865 90.4156 6.79027C90.6214 6.88241 90.8528 6.92848 91.1104 6.92848C91.3774 6.92848 91.6119 6.88241 91.8145 6.79027C92.0203 6.69865 92.192 6.56043 92.3297 6.37615C92.4679 6.18925 92.5721 5.9589 92.6427 5.68614C92.7134 5.41024 92.7485 5.08774 92.7485 4.7197ZM95.3133 0.642981H95.8425L97.8717 6.53269L99.9104 0.642981H100.435L98.0791 7.34259H97.6739L95.3133 0.642981ZM95.1525 0.642981H95.6169L95.6813 4.42548V7.34259H95.1525V0.642981ZM100.14 0.642981H100.605V7.34259H100.081V4.42548L100.14 0.642981Z" fill="#4D4D4D"/>
</svg>
