<svg width="105" height="8" viewBox="0 0 105 8" fill="none" xmlns="http://www.w3.org/2000/svg">
<path d="M2.59567 5.26519L3.79665 0.346106H4.21076L3.90245 1.81879L2.61871 7.04571H2.21836L2.59567 5.26519ZM1.2291 0.346106L2.23219 5.21911L2.53128 7.04571H2.11717L0.695312 0.346106H1.2291ZM5.81664 5.21441L6.80589 0.346106H7.33963L5.91783 7.04571H5.50372L5.81664 5.21441ZM4.26139 0.346106L5.44388 5.26519L5.81664 7.04571H5.41629L4.16474 1.81879L3.85183 0.346106H4.26139ZM10.3369 5.26519L11.5379 0.346106H11.952L11.6437 1.81879L10.36 7.04571H9.95964L10.3369 5.26519ZM8.97037 0.346106L9.97346 5.21911L10.2726 7.04571H9.85844L8.43658 0.346106H8.97037ZM13.5579 5.21441L14.5472 0.346106H15.081L13.6591 7.04571H13.245L13.5579 5.21441ZM12.0027 0.346106L13.1852 5.26519L13.5579 7.04571H13.1576L11.906 1.81879L11.5931 0.346106H12.0027ZM18.0783 5.26519L19.2792 0.346106H19.6933L19.385 1.81879L18.1013 7.04571H17.7009L18.0783 5.26519ZM16.7116 0.346106L17.7147 5.21911L18.0138 7.04571H17.5997L16.1779 0.346106H16.7116ZM21.2992 5.21441L22.2884 0.346106H22.8222L21.4004 7.04571H20.9863L21.2992 5.21441ZM19.7439 0.346106L20.9265 5.26519L21.2992 7.04571H20.8988L19.6473 1.81879L19.3344 0.346106H19.7439ZM23.6894 6.70542C23.6894 6.5981 23.7229 6.50595 23.7904 6.42899C23.8579 6.35255 23.9527 6.31434 24.0757 6.31434C24.1982 6.31434 24.2951 6.35255 24.3657 6.42899C24.4359 6.50281 24.4715 6.59495 24.4715 6.70542C24.4715 6.8096 24.4359 6.90018 24.3657 6.97661C24.2951 7.05043 24.1982 7.08707 24.0757 7.08707C23.9527 7.08707 23.8579 7.05043 23.7904 6.97661C23.7229 6.90018 23.6894 6.8096 23.6894 6.70542ZM26.5389 0.346106L28.2001 3.98097L29.8707 0.346106H30.478L28.4624 4.52439V7.04571H27.9378V4.52439L25.9227 0.346106H26.5389ZM35.9551 2.97369V4.42282C35.9551 4.86154 35.9049 5.25105 35.8033 5.59186C35.7054 5.92902 35.5609 6.21277 35.3709 6.44313C35.184 6.67296 34.9567 6.84782 34.6898 6.96771C34.4264 7.08393 34.127 7.14256 33.7929 7.14256C33.4647 7.14256 33.1668 7.08393 32.8998 6.96771C32.6333 6.84782 32.4045 6.67296 32.2145 6.44313C32.0245 6.21277 31.8768 5.92902 31.7726 5.59186C31.6716 5.25105 31.6208 4.86154 31.6208 4.42282V2.97369C31.6208 2.53183 31.6716 2.14077 31.7726 1.79995C31.8742 1.45966 32.0182 1.1759 32.2051 0.948689C32.3956 0.722 32.6239 0.550278 32.8909 0.433531C33.1579 0.314166 33.4553 0.253967 33.7835 0.253967C34.1212 0.253967 34.4233 0.314166 34.6898 0.433531C34.9567 0.550278 35.184 0.722 35.3709 0.948689C35.5609 1.1759 35.7054 1.45966 35.8033 1.79995C35.9049 2.14077 35.9551 2.53183 35.9551 2.97369ZM35.4305 4.42282V2.96428C35.4305 2.59938 35.3939 2.27898 35.3206 2.00255C35.2499 1.72665 35.1457 1.4963 35.0075 1.31255C34.8693 1.12826 34.6976 0.990567 34.4919 0.898425C34.2866 0.806284 34.0505 0.76021 33.7835 0.76021C33.5259 0.76021 33.294 0.806284 33.0888 0.898425C32.8862 0.990567 32.7145 1.12984 32.5731 1.31726C32.4354 1.50102 32.3297 1.73137 32.2559 2.00727C32.182 2.28003 32.1454 2.59938 32.1454 2.96428V4.42282C32.1454 4.79086 32.182 5.11336 32.2559 5.38926C32.3323 5.66202 32.4417 5.89237 32.5825 6.07927C32.7239 6.26355 32.8956 6.40177 33.0977 6.49339C33.3034 6.58553 33.5348 6.63161 33.7929 6.63161C34.0594 6.63161 34.2945 6.58553 34.4966 6.49339C34.7023 6.40177 34.874 6.26355 35.0122 6.07927C35.1499 5.89237 35.2546 5.66202 35.3248 5.38926C35.3955 5.11336 35.4305 4.79086 35.4305 4.42282ZM41.1983 0.346106H41.7228V5.0673C41.7228 5.57041 41.6323 5.97353 41.4511 6.27718C41.2731 6.57768 41.0323 6.79703 40.7287 6.93525C40.4282 7.07346 40.0952 7.14256 39.7303 7.14256C39.356 7.14256 39.0188 7.07503 38.7178 6.93996C38.4173 6.80175 38.1796 6.58082 38.0047 6.27718C37.8299 5.97353 37.7425 5.57041 37.7425 5.0673V0.346106H38.267V5.0673C38.267 5.4568 38.3299 5.7683 38.4555 6.00127C38.5817 6.2311 38.755 6.39706 38.9759 6.4981C39.1963 6.59914 39.4481 6.64992 39.7303 6.64992C40.0188 6.64992 40.2716 6.59914 40.4894 6.4981C40.7103 6.39392 40.8836 6.22691 41.0093 5.99656C41.1354 5.76673 41.1983 5.4568 41.1983 5.0673V0.346106ZM43.6709 0.346106H45.5069C45.9027 0.346106 46.243 0.423066 46.5283 0.57646C46.8168 0.726713 47.0377 0.948682 47.1911 1.24343C47.3471 1.53504 47.4256 1.89366 47.4256 2.32033C47.4256 2.63602 47.3702 2.92292 47.2597 3.18049C47.1492 3.43807 46.9958 3.65324 46.7995 3.82495C46.6063 3.99667 46.3796 4.11446 46.1189 4.17886L45.9441 4.2574H44.0295L44.0206 3.76475H45.5943C45.8854 3.76475 46.1278 3.69721 46.321 3.56266C46.5147 3.42445 46.6587 3.24645 46.754 3.02867C46.8519 2.80774 46.9011 2.57163 46.9011 2.32033C46.9011 2.01669 46.8471 1.7544 46.7398 1.53347C46.6356 1.31254 46.4791 1.14239 46.2707 1.0225C46.065 0.899996 45.8106 0.838752 45.5069 0.838752H44.2002V7.04571H43.6709V0.346106ZM47.1079 7.04571L45.6676 4.04588L46.2294 4.04117L47.6696 6.98602V7.04571H47.1079ZM52.4798 5.38926C52.4798 5.20812 52.4552 5.0474 52.406 4.90604C52.3568 4.76207 52.2756 4.63328 52.162 4.51967C52.0484 4.40607 51.894 4.30032 51.6977 4.20189C51.5039 4.10085 51.2647 4.00139 50.9794 3.90297C50.6972 3.80769 50.4428 3.70349 50.2155 3.58989C49.992 3.4768 49.7988 3.34646 49.636 3.19882C49.4763 3.05171 49.3538 2.87999 49.268 2.68366C49.1852 2.48734 49.1439 2.25751 49.1439 1.99365C49.1439 1.73294 49.1899 1.4963 49.2816 1.28479C49.3769 1.07015 49.5088 0.885868 49.6774 0.732474C49.8459 0.57908 50.0454 0.461288 50.2757 0.378571C50.5056 0.29533 50.7605 0.253967 51.0396 0.253967C51.438 0.253967 51.7819 0.344528 52.0699 0.52567C52.3615 0.70367 52.5856 0.944496 52.7421 1.24814C52.8986 1.54865 52.9766 1.88476 52.9766 2.25595H52.4521C52.4521 1.96434 52.3966 1.70518 52.2866 1.47797C52.1788 1.25128 52.0196 1.07329 51.8076 0.944503C51.5992 0.812573 51.3448 0.746597 51.0443 0.746597C50.7433 0.746597 50.4904 0.803145 50.2846 0.916751C50.0826 1.02722 49.9307 1.1759 49.8292 1.36332C49.7281 1.54708 49.6774 1.75125 49.6774 1.9748C49.6774 2.13448 49.702 2.28159 49.7512 2.41666C49.8004 2.55173 49.8815 2.67581 49.9951 2.78941C50.1114 2.90302 50.2648 3.01034 50.4553 3.11138C50.6454 3.2098 50.8752 3.30195 51.1453 3.38781C51.449 3.48571 51.716 3.5946 51.9458 3.71449C52.1788 3.83071 52.3741 3.96893 52.5301 4.12861C52.6897 4.28514 52.8096 4.46576 52.8892 4.6715C52.9719 4.87673 53.0133 5.11336 53.0133 5.37984C53.0133 5.65626 52.9656 5.90285 52.8709 6.12063C52.7756 6.3358 52.6405 6.51956 52.4657 6.67295C52.2908 6.82321 52.0856 6.93838 51.8495 7.01796C51.6128 7.09806 51.3521 7.13785 51.0668 7.13785C50.8186 7.13785 50.5684 7.09963 50.3171 7.02267C50.0684 6.94624 49.8417 6.82635 49.636 6.66406C49.4334 6.50124 49.2711 6.29288 49.1481 6.03792C49.0256 5.78349 48.9643 5.47983 48.9643 5.12697H49.4936C49.4936 5.40601 49.5391 5.64369 49.6313 5.84002C49.7266 6.0332 49.8491 6.18974 49.9993 6.30962C50.1501 6.42585 50.3187 6.51171 50.5056 6.5672C50.693 6.61956 50.8815 6.6452 51.0715 6.6452C51.36 6.6452 51.6087 6.59339 51.817 6.4892C52.0285 6.3845 52.1913 6.23895 52.3049 6.05205C52.4212 5.86148 52.4798 5.64056 52.4798 5.38926ZM55.3069 0.346106V7.04571H54.7729V0.346106H55.3069ZM59.238 0.346106V7.04571H58.7135V0.346106H59.238ZM61.1432 0.346106V0.838752H56.8131V0.346106H61.1432ZM66.2109 6.55359V7.04571H63.0818V6.55359H66.2109ZM63.2294 0.346106V7.04571H62.7001V0.346106H63.2294ZM65.8199 3.34173V3.83857H63.0818V3.34173H65.8199ZM66.1879 0.346106V0.838752H63.0818V0.346106H66.1879ZM71.2284 0.346106H71.753V5.0673C71.753 5.57041 71.6624 5.97353 71.4813 6.27718C71.3033 6.57768 71.0625 6.79703 70.7588 6.93525C70.4583 7.07346 70.1254 7.14256 69.7605 7.14256C69.3861 7.14256 69.049 7.07503 68.748 6.93996C68.4475 6.80175 68.2098 6.58082 68.0349 6.27718C67.8601 5.97353 67.7726 5.57041 67.7726 5.0673V0.346106H68.2972V5.0673C68.2972 5.4568 68.36 5.7683 68.4857 6.00127C68.6118 6.2311 68.7851 6.39706 69.0055 6.4981C69.2265 6.59914 69.4783 6.64992 69.7605 6.64992C70.0489 6.64992 70.3018 6.59914 70.5196 6.4981C70.7405 6.39392 70.9138 6.22691 71.0395 5.99656C71.1651 5.76673 71.2284 5.4568 71.2284 5.0673V0.346106ZM73.7011 0.346106H75.5371C75.9329 0.346106 76.2732 0.423066 76.5585 0.57646C76.847 0.726713 77.0679 0.948682 77.2208 1.24343C77.3773 1.53504 77.4558 1.89366 77.4558 2.32033C77.4558 2.63602 77.4003 2.92292 77.2899 3.18049C77.1794 3.43807 77.026 3.65324 76.8297 3.82495C76.6365 3.99667 76.4098 4.11446 76.1491 4.17886L75.9742 4.2574H74.0597L74.0508 3.76475H75.6245C75.9156 3.76475 76.158 3.69721 76.3512 3.56266C76.5444 3.42445 76.6889 3.24645 76.7841 3.02867C76.882 2.80774 76.9312 2.57163 76.9312 2.32033C76.9312 2.01669 76.8773 1.7544 76.77 1.53347C76.6658 1.31254 76.5093 1.14239 76.3009 1.0225C76.0952 0.899996 75.8407 0.838752 75.5371 0.838752H74.2304V7.04571H73.7011V0.346106ZM77.138 7.04571L75.6978 4.04588L76.2596 4.04117L77.6998 6.98602V7.04571H77.138ZM82.6477 6.55359V7.04571H79.7489V6.55359H82.6477ZM79.896 0.346106V7.04571H79.3625V0.346106H79.896ZM84.09 6.70542C84.09 6.5981 84.1235 6.50595 84.191 6.42899C84.2586 6.35255 84.3539 6.31434 84.4764 6.31434C84.5989 6.31434 84.6957 6.35255 84.7664 6.42899C84.8371 6.50281 84.8721 6.59495 84.8721 6.70542C84.8721 6.8096 84.8371 6.90018 84.7664 6.97661C84.6957 7.05043 84.5989 7.08707 84.4764 7.08707C84.3539 7.08707 84.2586 7.05043 84.191 6.97661C84.1235 6.90018 84.09 6.8096 84.09 6.70542ZM90.4231 4.95212H90.9524C90.9215 5.45209 90.8221 5.86462 90.6535 6.18973C90.4844 6.5117 90.2498 6.75148 89.9493 6.90749C89.6514 7.06403 89.2913 7.14256 88.8677 7.14256C88.5457 7.14256 88.2557 7.07922 87.9981 6.95357C87.7406 6.82792 87.5196 6.64522 87.3359 6.40597C87.1547 6.16671 87.015 5.87877 86.9171 5.54109C86.8218 5.2008 86.7741 4.81704 86.7741 4.39088V2.95538C86.7741 2.53499 86.8218 2.15908 86.9171 1.82769C87.015 1.49368 87.1563 1.20993 87.3401 0.97644C87.5275 0.740329 87.7516 0.56075 88.0123 0.438244C88.2756 0.315738 88.5751 0.253967 88.9091 0.253967C89.3143 0.253967 89.6624 0.330927 89.954 0.484322C90.2483 0.637716 90.4797 0.875398 90.6488 1.19737C90.8205 1.51934 90.9215 1.93502 90.9524 2.44441H90.4231C90.3954 2.03344 90.3221 1.70362 90.2022 1.45495C90.0828 1.20679 89.9153 1.02722 89.7006 0.916751C89.4891 0.803145 89.2253 0.746597 88.9091 0.746597C88.6484 0.746597 88.4185 0.796861 88.2191 0.898425C88.0227 0.996325 87.8557 1.14083 87.7175 1.33087C87.5825 1.51777 87.4798 1.74812 87.4092 2.02088C87.3385 2.29102 87.3034 2.59938 87.3034 2.94595V4.39088C87.3034 4.73118 87.3374 5.04112 87.4045 5.32016C87.472 5.59606 87.5704 5.83427 87.6992 6.03321C87.8311 6.23267 87.9934 6.38607 88.1871 6.49339C88.3835 6.5981 88.6101 6.64992 88.8677 6.64992C89.1991 6.64992 89.474 6.5981 89.6917 6.49339C89.9095 6.38921 90.0781 6.21434 90.1975 5.96881C90.3174 5.72065 90.3922 5.38141 90.4231 4.95212ZM96.8898 2.97369V4.42282C96.8898 4.86154 96.8395 5.25105 96.7379 5.59186C96.64 5.92902 96.4955 6.21277 96.3055 6.44313C96.1186 6.67296 95.8914 6.84782 95.6244 6.96771C95.3605 7.08393 95.0616 7.14256 94.7271 7.14256C94.3988 7.14256 94.1014 7.08393 93.8344 6.96771C93.568 6.84782 93.3392 6.67296 93.1491 6.44313C92.9586 6.21277 92.8115 5.92902 92.7073 5.59186C92.6062 5.25105 92.5555 4.86154 92.5555 4.42282V2.97369C92.5555 2.53183 92.6062 2.14077 92.7073 1.79995C92.8083 1.45966 92.9528 1.1759 93.1397 0.948689C93.3298 0.722 93.5585 0.550278 93.8255 0.433531C94.092 0.314166 94.3899 0.253967 94.7182 0.253967C95.0553 0.253967 95.3574 0.314166 95.6244 0.433531C95.8914 0.550278 96.1186 0.722 96.3055 0.948689C96.4955 1.1759 96.64 1.45966 96.7379 1.79995C96.8395 2.14077 96.8898 2.53183 96.8898 2.97369ZM96.3652 4.42282V2.96428C96.3652 2.59938 96.3285 2.27898 96.2547 2.00255C96.1846 1.72665 96.0799 1.4963 95.9422 1.31255C95.804 1.12826 95.6322 0.990567 95.4265 0.898425C95.2213 0.806284 94.9852 0.76021 94.7182 0.76021C94.4606 0.76021 94.2287 0.806284 94.0234 0.898425C93.8208 0.990567 93.6491 1.12984 93.5078 1.31726C93.3701 1.50102 93.2638 1.73137 93.1905 2.00727C93.1167 2.28003 93.08 2.59938 93.08 2.96428V4.42282C93.08 4.79086 93.1167 5.11336 93.1905 5.38926C93.2669 5.66202 93.3758 5.89237 93.5172 6.07927C93.658 6.26355 93.8297 6.40177 94.0323 6.49339C94.2381 6.58553 94.4695 6.63161 94.7271 6.63161C94.9941 6.63161 95.2286 6.58553 95.4312 6.49339C95.6369 6.40177 95.8087 6.26355 95.9464 6.07927C96.0846 5.89237 96.1888 5.66202 96.2594 5.38926C96.3301 5.11336 96.3652 4.79086 96.3652 4.42282ZM98.93 0.346106H99.4592L101.488 6.23581L103.527 0.346106H104.052L101.696 7.04571H101.291L98.93 0.346106ZM98.7692 0.346106H99.2336L99.298 4.12861V7.04571H98.7692V0.346106ZM103.757 0.346106H104.222V7.04571H103.697V4.12861L103.757 0.346106Z" fill="#4D4D4D"/>
</svg>
