<svg width="94" height="8" viewBox="0 0 94 8" fill="none" xmlns="http://www.w3.org/2000/svg">
<path d="M4.10978 5.47166H4.63891C4.60823 5.97163 4.50855 6.38417 4.33987 6.70928C4.17114 7.03125 3.93644 7.27102 3.63583 7.42703C3.33831 7.58357 2.97786 7.6621 2.55453 7.6621C2.23246 7.6621 1.94252 7.59876 1.6849 7.47311C1.42721 7.34746 1.20634 7.16475 1.02227 6.9255C0.841282 6.68624 0.701709 6.39831 0.603547 6.06063C0.508474 5.72034 0.460938 5.33659 0.460938 4.91043V3.47491C0.460938 3.05452 0.508474 2.67863 0.603547 2.34723C0.701709 2.01322 0.842851 1.72947 1.02687 1.49597C1.21398 1.25986 1.43795 1.08029 1.69867 0.957784C1.96247 0.835278 2.26156 0.773499 2.59594 0.773499C3.00084 0.773499 3.34904 0.850459 3.64044 1.00385C3.93492 1.15725 4.16653 1.39493 4.33526 1.7169C4.50703 2.03887 4.60823 2.45455 4.63891 2.96395H4.10978C4.08219 2.55298 4.00853 2.22315 3.8889 1.97448C3.76928 1.72633 3.60211 1.54675 3.38736 1.43629C3.1757 1.32268 2.91189 1.26614 2.59594 1.26614C2.33517 1.26614 2.10513 1.3164 1.90572 1.41796C1.7094 1.51586 1.54224 1.66036 1.40418 1.8504C1.26921 2.0373 1.16644 2.26765 1.09593 2.54041C1.02535 2.81055 0.990069 3.11892 0.990069 3.46549V4.91043C0.990069 5.25073 1.02384 5.56065 1.09132 5.83969C1.1588 6.11559 1.25696 6.3538 1.3858 6.55274C1.51768 6.75221 1.68029 6.90561 1.87352 7.01293C2.06985 7.11764 2.29685 7.16946 2.55453 7.16946C2.88582 7.16946 3.16036 7.11764 3.37815 7.01293C3.59599 6.90875 3.76467 6.73388 3.88429 6.48835C4.00392 6.24019 4.0791 5.90095 4.10978 5.47166ZM9.93692 7.07313V7.56525H6.808V7.07313H9.93692ZM6.95527 0.865645V7.56525H6.42608V0.865645H6.95527ZM9.5458 3.86128V4.3581H6.808V3.86128H9.5458ZM9.91389 0.865645V1.35828H6.808V0.865645H9.91389ZM15.741 3.49324V4.94237C15.741 5.38109 15.6904 5.77059 15.5892 6.11141C15.491 6.44857 15.3469 6.73231 15.1567 6.96267C14.9696 7.1925 14.7426 7.36735 14.4757 7.48724C14.2119 7.60347 13.9128 7.6621 13.5784 7.6621C13.2502 7.6621 12.9526 7.60347 12.6858 7.48724C12.4189 7.36735 12.1904 7.1925 12.0002 6.96267C11.81 6.73231 11.6627 6.44857 11.5584 6.11141C11.4572 5.77059 11.4066 5.38109 11.4066 4.94237V3.49324C11.4066 3.05138 11.4572 2.6603 11.5584 2.31948C11.6596 1.97919 11.8038 1.69544 11.9909 1.46823C12.1811 1.24154 12.4097 1.06982 12.6766 0.95307C12.9434 0.833706 13.241 0.773499 13.5692 0.773499C13.9066 0.773499 14.2088 0.833706 14.4757 0.95307C14.7426 1.06982 14.9696 1.24154 15.1567 1.46823C15.3469 1.69544 15.491 1.97919 15.5892 2.31948C15.6904 2.6603 15.741 3.05138 15.741 3.49324ZM15.2165 4.94237V3.48381C15.2165 3.11891 15.1797 2.79852 15.106 2.52209C15.0355 2.24619 14.9312 2.01584 14.7931 1.83208C14.6551 1.64779 14.4833 1.51011 14.2778 1.41796C14.0723 1.32582 13.8361 1.27976 13.5692 1.27976C13.3115 1.27976 13.0799 1.32582 12.8744 1.41796C12.6719 1.51011 12.5002 1.64937 12.359 1.83679C12.221 2.02055 12.1152 2.25091 12.0416 2.52681C11.968 2.79956 11.9311 3.11891 11.9311 3.48381V4.94237C11.9311 5.31041 11.968 5.6329 12.0416 5.9088C12.1183 6.18156 12.2272 6.41192 12.3682 6.59882C12.5093 6.7831 12.6812 6.92131 12.8836 7.01293C13.0891 7.10507 13.3207 7.15114 13.5784 7.15114C13.8453 7.15114 14.0799 7.10507 14.2824 7.01293C14.4879 6.92131 14.6597 6.7831 14.7977 6.59882C14.9358 6.41192 15.0401 6.18156 15.1107 5.9088C15.1812 5.6329 15.2165 5.31041 15.2165 4.94237ZM22.1084 1.27086L20.1758 7.56525H19.6328L21.7632 0.865645H22.1359L22.1084 1.27086ZM23.8385 7.56525L21.9059 1.27086L21.8829 0.865645H22.251L24.386 7.56525H23.8385ZM23.5394 5.19575V5.69259H20.5163V5.19575H23.5394ZM30.0751 0.865645V7.56525H29.5459L26.394 1.85512V7.56525H25.8603V0.865645H26.394L29.5505 6.57578V0.865645H30.0751ZM33.6844 7.56525H32.4282L32.4328 7.07313H33.6844C34.0862 7.07313 34.4283 6.98832 34.7105 6.81975C34.9927 6.65117 35.2074 6.40406 35.3545 6.07895C35.5048 5.75384 35.5802 5.35648 35.5802 4.88739V3.52989C35.5802 3.17389 35.5373 2.86133 35.4514 2.59119C35.3687 2.31843 35.2458 2.09122 35.0832 1.91008C34.9237 1.72632 34.7289 1.58811 34.4988 1.49597C34.2687 1.40383 34.0095 1.35828 33.7212 1.35828H32.4006V0.865645H33.7212C34.077 0.865645 34.3991 0.923757 34.6875 1.0405C34.9789 1.15725 35.2304 1.32896 35.442 1.55565C35.654 1.78286 35.8163 2.06348 35.9299 2.39802C36.0435 2.72941 36.1 3.10949 36.1 3.53931V4.88739C36.1 5.31983 36.0435 5.70306 35.9299 6.03759C35.8163 6.36899 35.654 6.64803 35.442 6.87524C35.2304 7.10193 34.9758 7.27364 34.6783 7.39039C34.3838 7.50714 34.0525 7.56525 33.6844 7.56525ZM32.6767 0.865645V7.56525H32.1476V0.865645H32.6767ZM44.0734 5.47166H44.6027C44.5718 5.97163 44.4718 6.38417 44.3032 6.70928C44.1347 7.03125 43.9001 7.27102 43.5991 7.42703C43.3017 7.58357 42.9415 7.6621 42.518 7.6621C42.196 7.6621 41.906 7.59876 41.6484 7.47311C41.3908 7.34746 41.1699 7.16475 40.9856 6.9255C40.805 6.68624 40.6652 6.39831 40.5668 6.06063C40.472 5.72034 40.4244 5.33659 40.4244 4.91043V3.47491C40.4244 3.05452 40.472 2.67863 40.5668 2.34723C40.6652 2.01322 40.8066 1.72947 40.9903 1.49597C41.1778 1.25986 41.4013 1.08029 41.662 0.957784C41.9259 0.835278 42.2248 0.773499 42.5593 0.773499C42.9646 0.773499 43.3127 0.850459 43.6038 1.00385C43.8985 1.15725 44.1299 1.39493 44.2985 1.7169C44.4708 2.03887 44.5718 2.45455 44.6027 2.96395H44.0734C44.0457 2.55298 43.9718 2.22315 43.8525 1.97448C43.7326 1.72633 43.5656 1.54675 43.3509 1.43629C43.1394 1.32268 42.8756 1.26614 42.5593 1.26614C42.2986 1.26614 42.0688 1.3164 41.8693 1.41796C41.673 1.51586 41.5055 1.66036 41.3678 1.8504C41.2327 2.0373 41.1301 2.26765 41.0594 2.54041C40.9888 2.81055 40.9537 3.11892 40.9537 3.46549V4.91043C40.9537 5.25073 40.9872 5.56065 41.0547 5.83969C41.1223 6.11559 41.2207 6.3538 41.3495 6.55274C41.4814 6.75221 41.6437 6.90561 41.8369 7.01293C42.0332 7.11764 42.2604 7.16946 42.518 7.16946C42.8494 7.16946 43.1237 7.11764 43.3415 7.01293C43.5593 6.90875 43.7284 6.73388 43.8478 6.48835C43.9676 6.24019 44.0425 5.90095 44.0734 5.47166ZM50.54 3.49324V4.94237C50.54 5.38109 50.4893 5.77059 50.3882 6.11141C50.2898 6.44857 50.1458 6.73231 49.9558 6.96267C49.7684 7.1925 49.5417 7.36735 49.2747 7.48724C49.0108 7.60347 48.7119 7.6621 48.3773 7.6621C48.0491 7.6621 47.7517 7.60347 47.4847 7.48724C47.2177 7.36735 46.9895 7.1925 46.7989 6.96267C46.6088 6.73231 46.4617 6.44857 46.3576 6.11141C46.256 5.77059 46.2057 5.38109 46.2057 4.94237V3.49324C46.2057 3.05138 46.256 2.6603 46.3576 2.31948C46.4586 1.97919 46.6026 1.69544 46.79 1.46823C46.98 1.24154 47.2088 1.06982 47.4753 0.95307C47.7423 0.833706 48.0402 0.773499 48.3679 0.773499C48.7056 0.773499 49.0077 0.833706 49.2747 0.95307C49.5417 1.06982 49.7684 1.24154 49.9558 1.46823C50.1458 1.69544 50.2898 1.97919 50.3882 2.31948C50.4893 2.6603 50.54 3.05138 50.54 3.49324ZM50.0155 4.94237V3.48381C50.0155 3.11891 49.9788 2.79852 49.905 2.52209C49.8343 2.24619 49.7301 2.01584 49.5919 1.83208C49.4542 1.64779 49.2825 1.51011 49.0768 1.41796C48.871 1.32582 48.6349 1.27976 48.3679 1.27976C48.1103 1.27976 47.8789 1.32582 47.6732 1.41796C47.4711 1.51011 47.2989 1.64937 47.158 1.83679C47.0198 2.02055 46.9141 2.25091 46.8408 2.52681C46.767 2.79956 46.7303 3.11891 46.7303 3.48381V4.94237C46.7303 5.31041 46.767 5.6329 46.8408 5.9088C46.9172 6.18156 47.0261 6.41192 47.1675 6.59882C47.3083 6.7831 47.48 6.92131 47.6826 7.01293C47.8878 7.10507 48.1198 7.15114 48.3773 7.15114C48.6443 7.15114 48.8789 7.10507 49.0815 7.01293C49.2867 6.92131 49.4584 6.7831 49.5966 6.59882C49.7348 6.41192 49.839 6.18156 49.9097 5.9088C49.9804 5.6329 50.0155 5.31041 50.0155 4.94237ZM53.7535 4.37172V4.85022H51.8991V4.37172H53.7535ZM55.858 0.865645V7.56525H55.3293V0.865645H55.858ZM58.426 3.93929V4.44082H55.6973V3.93929H58.426ZM58.8123 0.865645V1.35828H55.6973V0.865645H58.8123ZM64.5795 3.49324V4.94237C64.5795 5.38109 64.5287 5.77059 64.4277 6.11141C64.3298 6.44857 64.1853 6.73231 63.9953 6.96267C63.8078 7.1925 63.5812 7.36735 63.3142 7.48724C63.0503 7.60347 62.7514 7.6621 62.4168 7.6621C62.0886 7.6621 61.7912 7.60347 61.5242 7.48724C61.2572 7.36735 61.0289 7.1925 60.8389 6.96267C60.6483 6.73231 60.5012 6.44857 60.397 6.11141C60.2955 5.77059 60.2452 5.38109 60.2452 4.94237V3.49324C60.2452 3.05138 60.2955 2.6603 60.397 2.31948C60.4981 1.97919 60.6426 1.69544 60.8295 1.46823C61.0195 1.24154 61.2483 1.06982 61.5153 0.95307C61.7818 0.833706 62.0797 0.773499 62.4079 0.773499C62.7451 0.773499 63.0472 0.833706 63.3142 0.95307C63.5812 1.06982 63.8078 1.24154 63.9953 1.46823C64.1853 1.69544 64.3298 1.97919 64.4277 2.31948C64.5287 2.6603 64.5795 3.05138 64.5795 3.49324ZM64.0549 4.94237V3.48381C64.0549 3.11891 64.0183 2.79852 63.9445 2.52209C63.8738 2.24619 63.7696 2.01584 63.6319 1.83208C63.4937 1.64779 63.322 1.51011 63.1163 1.41796C62.911 1.32582 62.6744 1.27976 62.4079 1.27976C62.1498 1.27976 61.9184 1.32582 61.7132 1.41796C61.5106 1.51011 61.3389 1.64937 61.1975 1.83679C61.0593 2.02055 60.9536 2.25091 60.8803 2.52681C60.8064 2.79956 60.7698 3.11891 60.7698 3.48381V4.94237C60.7698 5.31041 60.8064 5.6329 60.8803 5.9088C60.9567 6.18156 61.0656 6.41192 61.2069 6.59882C61.3478 6.7831 61.5195 6.92131 61.7221 7.01293C61.9278 7.10507 62.1592 7.15114 62.4168 7.15114C62.6838 7.15114 62.9184 7.10507 63.121 7.01293C63.3267 6.92131 63.4984 6.7831 63.6361 6.59882C63.7743 6.41192 63.8785 6.18156 63.9492 5.9088C64.0199 5.6329 64.0549 5.31041 64.0549 4.94237ZM69.8221 0.865645H70.3467V5.58683C70.3467 6.08994 70.2561 6.49306 70.0755 6.79671C69.8975 7.09721 69.6567 7.31657 69.3531 7.45479C69.0526 7.593 68.7196 7.6621 68.3547 7.6621C67.9804 7.6621 67.6427 7.59457 67.3422 7.4595C67.0417 7.32129 66.804 7.10035 66.6291 6.79671C66.4543 6.49306 66.3669 6.08994 66.3669 5.58683V0.865645H66.8914V5.58683C66.8914 5.97633 66.9542 6.28784 67.0799 6.52081C67.2055 6.75064 67.3788 6.91659 67.5998 7.01763C67.8207 7.11868 68.0725 7.16946 68.3547 7.16946C68.6426 7.16946 68.896 7.11868 69.1138 7.01763C69.3347 6.91345 69.508 6.74645 69.6337 6.5161C69.7593 6.28627 69.8221 5.97633 69.8221 5.58683V0.865645ZM76.5191 0.865645V7.56525H75.9898L72.8382 1.85512V7.56525H72.3042V0.865645H72.8382L75.9946 6.57578V0.865645H76.5191ZM80.1283 7.56525H78.8724L78.8766 7.07313H80.1283C80.5304 7.07313 80.8723 6.98832 81.1545 6.81975C81.4366 6.65117 81.6513 6.40406 81.7989 6.07895C81.9492 5.75384 82.024 5.35648 82.024 4.88739V3.52989C82.024 3.17389 81.9811 2.86133 81.8953 2.59119C81.8125 2.31843 81.69 2.09122 81.5272 1.91008C81.3675 1.72632 81.1728 1.58811 80.943 1.49597C80.7126 1.40383 80.4535 1.35828 80.165 1.35828H78.8447V0.865645H80.165C80.521 0.865645 80.843 0.923757 81.1314 1.0405C81.423 1.15725 81.6743 1.32896 81.8864 1.55565C82.0979 1.78286 82.2602 2.06348 82.3738 2.39802C82.4874 2.72941 82.5439 3.10949 82.5439 3.53931V4.88739C82.5439 5.31983 82.4874 5.70306 82.3738 6.03759C82.2602 6.36899 82.0979 6.64803 81.8864 6.87524C81.6743 7.10193 81.4199 7.27364 81.1225 7.39039C80.8278 7.50714 80.4964 7.56525 80.1283 7.56525ZM79.1206 0.865645V7.56525H78.5918V0.865645H79.1206ZM87.9478 7.07313V7.56525H84.8192V7.07313H87.9478ZM84.9663 0.865645V7.56525H84.437V0.865645H84.9663ZM87.5567 3.86128V4.3581H84.8192V3.86128H87.5567ZM87.9247 0.865645V1.35828H84.8192V0.865645H87.9247ZM89.5922 0.865645H91.4282C91.824 0.865645 92.1648 0.942605 92.4496 1.096C92.7381 1.24625 92.959 1.46823 93.1124 1.76298C93.2689 2.05458 93.3469 2.4132 93.3469 2.83987C93.3469 3.15556 93.292 3.44246 93.1815 3.70003C93.071 3.95761 92.9176 4.17278 92.7213 4.3445C92.5281 4.51622 92.3009 4.63401 92.0402 4.6984L91.8653 4.77693H89.9513L89.9419 4.28429H91.5156C91.8072 4.28429 92.0496 4.21676 92.2428 4.08221C92.436 3.944 92.58 3.76599 92.6752 3.54821C92.7737 3.32728 92.8224 3.09117 92.8224 2.83987C92.8224 2.53623 92.769 2.27393 92.6616 2.053C92.5574 1.83208 92.4009 1.66193 92.192 1.54204C91.9868 1.41954 91.7319 1.35828 91.4282 1.35828H90.1215V7.56525H89.5922V0.865645ZM93.0297 7.56525L91.5895 4.56543L92.1507 4.56071L93.5909 7.50557V7.56525H93.0297Z" fill="#4D4D4D"/>
</svg>
