<svg width="105" height="9" viewBox="0 0 105 9" fill="none" xmlns="http://www.w3.org/2000/svg">
<path d="M3.60529 5.80332C3.60529 5.62218 3.58074 5.46146 3.53163 5.32011C3.48258 5.17613 3.40127 5.04734 3.28777 4.93374C3.17427 4.82013 3.01936 4.71438 2.82303 4.61596C2.6298 4.51492 2.39055 4.41545 2.10522 4.31703C1.82304 4.22175 1.5684 4.11755 1.34145 4.00395C1.11748 3.89087 0.924245 3.76052 0.761636 3.61288C0.602117 3.46577 0.479455 3.29405 0.393544 3.09773C0.310721 2.9014 0.26931 2.67158 0.26931 2.40772C0.26931 2.147 0.315329 1.91036 0.407366 1.69886C0.502439 1.48421 0.634367 1.29993 0.803048 1.14654C0.971782 0.993142 1.17119 0.875351 1.40123 0.792633C1.63132 0.709392 1.88592 0.66803 2.16506 0.66803C2.56384 0.66803 2.90743 0.758591 3.19574 0.939732C3.48718 1.11773 3.7111 1.35856 3.86753 1.66221C4.02401 1.96271 4.10223 2.29883 4.10223 2.67001H3.57765C3.57765 2.3784 3.52247 2.11924 3.412 1.89203C3.30468 1.66534 3.14516 1.48735 2.9335 1.35857C2.72487 1.22664 2.47028 1.16066 2.16967 1.16066C1.86906 1.16066 1.61598 1.21721 1.41045 1.33081C1.208 1.44128 1.05612 1.58996 0.954924 1.77738C0.853674 1.96114 0.803048 2.16532 0.803048 2.38886C0.803048 2.54854 0.827603 2.69565 0.87671 2.83072C0.925764 2.96579 1.00707 3.08987 1.12057 3.20348C1.23711 3.31708 1.3905 3.4244 1.5807 3.52544C1.7709 3.62386 2.00094 3.71601 2.27087 3.80187C2.57457 3.89977 2.84146 4.00866 3.0715 4.12855C3.30468 4.24478 3.49943 4.38299 3.65592 4.54267C3.81538 4.69921 3.93506 4.87982 4.0148 5.08556C4.09762 5.29079 4.13903 5.52742 4.13903 5.7939C4.13903 6.07032 4.09149 6.31691 3.99637 6.5347C3.90129 6.74987 3.76633 6.93362 3.59147 7.08702C3.41661 7.23727 3.21107 7.35244 2.97491 7.43202C2.73869 7.51212 2.47798 7.55191 2.19265 7.55191C1.94419 7.55191 1.6942 7.51369 1.44264 7.43673C1.19418 7.3603 0.967174 7.24041 0.761636 7.07812C0.559188 6.9153 0.396632 6.70694 0.273917 6.45198C0.151202 6.19755 0.0898438 5.89389 0.0898438 5.54103H0.619027C0.619027 5.82007 0.665047 6.05776 0.757031 6.25408C0.852156 6.44726 0.97487 6.6038 1.12518 6.72369C1.27548 6.83991 1.44416 6.92577 1.63132 6.98127C1.81843 7.03362 2.00706 7.05927 2.19726 7.05927C2.48562 7.05927 2.73409 7.00745 2.94266 6.90327C3.15432 6.79856 3.31693 6.65301 3.43043 6.46611C3.54697 6.27554 3.60529 6.05462 3.60529 5.80332ZM7.69772 1.16537L5.76516 7.45977H5.22216L7.35261 0.760168H7.72531L7.69772 1.16537ZM9.42783 7.45977L7.49522 1.16537L7.47224 0.760168H7.84033L9.97539 7.45977H9.42783ZM9.12874 5.09028V5.58711H6.10562V5.09028H9.12874ZM15.6644 0.760168V7.45977H15.1353L11.9834 1.74963V7.45977H11.4496V0.760168H11.9834L15.1399 6.47029V0.760168H15.6644ZM20.863 0.760168V7.45977H20.3339V0.760168H20.863ZM23.4304 3.83381V4.33536H20.702V3.83381H23.4304ZM23.8172 0.760168V1.25281H20.702V0.760168H23.8172ZM25.425 0.760168H27.2605C27.6563 0.760168 27.9971 0.837128 28.2824 0.990523C28.5704 1.14078 28.7913 1.36274 28.9447 1.65749C29.1012 1.9491 29.1792 2.30772 29.1792 2.7344C29.1792 3.05008 29.1243 3.33698 29.0138 3.59456C28.9033 3.85213 28.7499 4.0673 28.5536 4.23902C28.3604 4.41073 28.1332 4.52852 27.8725 4.59292L27.6976 4.67146H25.7836L25.7747 4.17881H27.3479C27.6395 4.17881 27.8819 4.11127 28.0751 3.97672C28.2683 3.83851 28.4128 3.66052 28.5075 3.44273C28.606 3.2218 28.6552 2.98569 28.6552 2.7344C28.6552 2.43075 28.6013 2.16847 28.4939 1.94754C28.3897 1.72661 28.2332 1.55645 28.0243 1.43656C27.8191 1.31406 27.5647 1.25281 27.2605 1.25281H25.9538V7.45977H25.425V0.760168ZM28.862 7.45977L27.4217 4.45994L27.983 4.45523L29.4232 7.40008V7.45977H28.862ZM32.9774 1.16537L31.0451 7.45977H30.5017L32.6324 0.760168H33.0052L32.9774 1.16537ZM34.7077 7.45977L32.7748 1.16537L32.7518 0.760168H33.1198L35.2553 7.45977H34.7077ZM34.4082 5.09028V5.58711H31.3854V5.09028H34.4082ZM40.944 0.760168V7.45977H40.4152L37.2631 1.74963V7.45977H36.7296V0.760168H37.2631L40.4194 6.47029V0.760168H40.944ZM46.4997 5.36618H47.029C46.9981 5.86615 46.8986 6.27869 46.73 6.6038C46.5609 6.92577 46.3264 7.16554 46.0259 7.32156C45.7285 7.47809 45.3678 7.55662 44.9448 7.55662C44.6223 7.55662 44.3328 7.49328 44.0747 7.36763C43.8171 7.24199 43.5962 7.05928 43.4124 6.82003C43.2313 6.58077 43.092 6.29283 42.9936 5.95515C42.8983 5.61486 42.8512 5.2311 42.8512 4.80495V3.36944C42.8512 2.94905 42.8983 2.57314 42.9936 2.24175C43.092 1.90774 43.2329 1.624 43.4171 1.3905C43.604 1.15439 43.8281 0.974813 44.0888 0.852307C44.3527 0.729801 44.6516 0.66803 44.9862 0.66803C45.3908 0.66803 45.739 0.74499 46.0306 0.898384C46.3248 1.05178 46.5567 1.28946 46.7253 1.61143C46.897 1.9334 46.9981 2.34908 47.029 2.85847H46.4997C46.4725 2.4475 46.3986 2.11769 46.2787 1.86901C46.1594 1.62086 45.9924 1.44128 45.7772 1.33081C45.5657 1.21721 45.3018 1.16066 44.9862 1.16066C44.7254 1.16066 44.4951 1.21092 44.2956 1.31249C44.0993 1.41039 43.9323 1.55489 43.7941 1.74493C43.659 1.93183 43.5564 2.16218 43.4857 2.43494C43.4156 2.70508 43.38 3.01344 43.38 3.36002V4.80495C43.38 5.14524 43.414 5.45518 43.4815 5.73422C43.5491 6.01012 43.647 6.24833 43.7758 6.44727C43.9077 6.64674 44.0705 6.80013 44.2637 6.90745C44.46 7.01216 44.6867 7.06398 44.9448 7.06398C45.2757 7.06398 45.5505 7.01216 45.7683 6.90745C45.9861 6.80327 46.1547 6.6284 46.2746 6.38287C46.3939 6.13472 46.4693 5.79548 46.4997 5.36618ZM49.4419 0.760168V7.45977H48.9079V0.760168H49.4419ZM54.7353 5.80332C54.7353 5.62218 54.7107 5.46146 54.6615 5.32011C54.6128 5.17613 54.5311 5.04734 54.4175 4.93374C54.3045 4.82013 54.1495 4.71438 53.9532 4.61596C53.76 4.51492 53.5207 4.41545 53.2354 4.31703C52.9532 4.22175 52.6983 4.11755 52.4716 4.00395C52.2475 3.89087 52.0543 3.76052 51.8915 3.61288C51.7324 3.46577 51.6093 3.29405 51.5235 3.09773C51.4408 2.9014 51.3994 2.67158 51.3994 2.40772C51.3994 2.147 51.4455 1.91036 51.5376 1.69886C51.6324 1.48421 51.7643 1.29993 51.9329 1.14654C52.102 0.993142 52.3014 0.875351 52.5313 0.792633C52.7611 0.709392 53.0161 0.66803 53.2951 0.66803C53.694 0.66803 54.0375 0.758591 54.3259 0.939732C54.617 1.11773 54.8411 1.35856 54.9976 1.66221C55.1541 1.96271 55.2322 2.29883 55.2322 2.67001H54.7076C54.7076 2.3784 54.6526 2.11924 54.5421 1.89203C54.4348 1.66534 54.2751 1.48735 54.0636 1.35857C53.8547 1.22664 53.6003 1.16066 53.2998 1.16066C52.9993 1.16066 52.7459 1.21721 52.5407 1.33081C52.3381 1.44128 52.1863 1.58996 52.0847 1.77738C51.9836 1.96114 51.9329 2.16532 51.9329 2.38886C51.9329 2.54854 51.9575 2.69565 52.0067 2.83072C52.0559 2.96579 52.137 3.08987 52.2506 3.20348C52.3669 3.31708 52.5203 3.4244 52.7108 3.52544C52.9009 3.62386 53.1307 3.71601 53.4008 3.80187C53.7045 3.89977 53.9715 4.00866 54.2013 4.12855C54.4348 4.24478 54.6296 4.38299 54.7861 4.54267C54.9453 4.69921 55.0651 4.87982 55.1447 5.08556C55.2274 5.29079 55.2688 5.52742 55.2688 5.7939C55.2688 6.07032 55.2217 6.31691 55.1264 6.5347C55.0311 6.74987 54.8966 6.93362 54.7217 7.08702C54.5468 7.23727 54.3411 7.35244 54.105 7.43202C53.8689 7.51212 53.6082 7.55191 53.3228 7.55191C53.0742 7.55191 52.8244 7.51369 52.5726 7.43673C52.3239 7.3603 52.0973 7.24041 51.8915 7.07812C51.6894 6.9153 51.5266 6.70694 51.4041 6.45198C51.2811 6.19755 51.2198 5.89389 51.2198 5.54103H51.7491C51.7491 5.82007 51.7952 6.05776 51.8873 6.25408C51.9821 6.44726 52.1051 6.6038 52.2554 6.72369C52.4056 6.83991 52.5742 6.92577 52.7611 6.98127C52.9485 7.03362 53.137 7.05927 53.327 7.05927C53.6155 7.05927 53.8642 7.00745 54.0725 6.90327C54.2846 6.79856 54.4469 6.65301 54.5605 6.46611C54.6772 6.27554 54.7353 6.05462 54.7353 5.80332ZM60.4198 5.36618H60.9491C60.9182 5.86615 60.8187 6.27869 60.6496 6.6038C60.4811 6.92577 60.2465 7.16554 59.946 7.32156C59.6481 7.47809 59.2879 7.55662 58.8644 7.55662C58.5424 7.55662 58.2524 7.49328 57.9948 7.36763C57.7372 7.24199 57.5163 7.05928 57.332 6.82003C57.1514 6.58077 57.0116 6.29283 56.9137 5.95515C56.8184 5.61486 56.7708 5.2311 56.7708 4.80495V3.36944C56.7708 2.94905 56.8184 2.57314 56.9137 2.24175C57.0116 1.90774 57.153 1.624 57.3367 1.3905C57.5242 1.15439 57.7477 0.974813 58.0084 0.852307C58.2723 0.729801 58.5717 0.66803 58.9058 0.66803C59.311 0.66803 59.6591 0.74499 59.9502 0.898384C60.2449 1.05178 60.4763 1.28946 60.6454 1.61143C60.8172 1.9334 60.9182 2.34908 60.9491 2.85847H60.4198C60.3921 2.4475 60.3188 2.11769 60.1989 1.86901C60.0795 1.62086 59.912 1.44128 59.6973 1.33081C59.4858 1.21721 59.222 1.16066 58.9058 1.16066C58.645 1.16066 58.4152 1.21092 58.2157 1.31249C58.0194 1.41039 57.8524 1.55489 57.7142 1.74493C57.5791 1.93183 57.4765 2.16218 57.4058 2.43494C57.3352 2.70508 57.3001 3.01344 57.3001 3.36002V4.80495C57.3001 5.14524 57.3336 5.45518 57.4011 5.73422C57.4687 6.01012 57.5671 6.24833 57.6959 6.44727C57.8278 6.64674 57.9901 6.80013 58.1833 6.90745C58.3796 7.01216 58.6068 7.06398 58.8644 7.06398C59.1958 7.06398 59.4701 7.01216 59.6879 6.90745C59.9057 6.80327 60.0748 6.6284 60.1942 6.38287C60.314 6.13472 60.3889 5.79548 60.4198 5.36618ZM66.8864 3.38775V4.83688C66.8864 5.2756 66.8357 5.66511 66.7346 6.00593C66.6367 6.34308 66.4922 6.62684 66.3022 6.85719C66.1148 7.08702 65.8881 7.26189 65.6211 7.38177C65.3572 7.498 65.0583 7.55662 64.7237 7.55662C64.3955 7.55662 64.0981 7.498 63.8311 7.38177C63.5641 7.26189 63.3359 7.08702 63.1458 6.85719C62.9553 6.62684 62.8081 6.34308 62.704 6.00593C62.6024 5.66511 62.5521 5.2756 62.5521 4.83688V3.38775C62.5521 2.94589 62.6024 2.55483 62.704 2.21401C62.805 1.87372 62.9495 1.58996 63.1364 1.36275C63.3264 1.13606 63.5552 0.964341 63.8222 0.847594C64.0887 0.728229 64.3866 0.66803 64.7148 0.66803C65.052 0.66803 65.3541 0.728229 65.6211 0.847594C65.8881 0.964341 66.1148 1.13606 66.3022 1.36275C66.4922 1.58996 66.6367 1.87372 66.7346 2.21401C66.8357 2.55483 66.8864 2.94589 66.8864 3.38775ZM66.3619 4.83688V3.37834C66.3619 3.01344 66.3252 2.69304 66.2514 2.41662C66.1807 2.14072 66.0765 1.91037 65.9389 1.72661C65.8006 1.54233 65.6289 1.40463 65.4232 1.31249C65.218 1.22035 64.9813 1.17427 64.7148 1.17427C64.4567 1.17427 64.2253 1.22035 64.0201 1.31249C63.8175 1.40463 63.6458 1.5439 63.5044 1.73132C63.3662 1.91508 63.2605 2.14543 63.1872 2.42133C63.1134 2.69409 63.0767 3.01344 63.0767 3.37834V4.83688C63.0767 5.20493 63.1134 5.52742 63.1872 5.80332C63.2636 6.07608 63.3725 6.30643 63.5139 6.49333C63.6547 6.67762 63.8264 6.81584 64.029 6.90745C64.2348 6.99959 64.4662 7.04567 64.7237 7.04567C64.9907 7.04567 65.2253 6.99959 65.4279 6.90745C65.6336 6.81584 65.8054 6.67762 65.943 6.49333C66.0813 6.30643 66.1854 6.07608 66.2561 5.80332C66.3268 5.52742 66.3619 5.20493 66.3619 4.83688ZM68.7518 6.58077V7.22995C68.7518 7.50899 68.6937 7.78017 68.5769 8.04403C68.4633 8.31103 68.3073 8.5351 68.1078 8.71571L67.7812 8.47227C67.8759 8.34349 67.9544 8.21418 68.0157 8.08539C68.0801 7.95975 68.1277 7.82781 68.1581 7.6896C68.1921 7.55191 68.2089 7.40166 68.2089 7.23884V6.58077H68.7518ZM76.6607 5.36618H77.19C77.1591 5.86615 77.0597 6.27869 76.8906 6.6038C76.722 6.92577 76.4874 7.16554 76.1869 7.32156C75.8891 7.47809 75.5289 7.55662 75.1053 7.55662C74.7834 7.55662 74.4933 7.49328 74.2357 7.36763C73.9782 7.24199 73.7572 7.05928 73.573 6.82003C73.3923 6.58077 73.2526 6.29283 73.1547 5.95515C73.0594 5.61486 73.0117 5.2311 73.0117 4.80495V3.36944C73.0117 2.94905 73.0594 2.57314 73.1547 2.24175C73.2526 1.90774 73.3939 1.624 73.5777 1.3905C73.7651 1.15439 73.9886 0.974813 74.2494 0.852307C74.5132 0.729801 74.8127 0.66803 75.1467 0.66803C75.5519 0.66803 75.9 0.74499 76.1911 0.898384C76.4859 1.05178 76.7173 1.28946 76.8858 1.61143C77.0581 1.9334 77.1591 2.34908 77.19 2.85847H76.6607C76.633 2.4475 76.5592 2.11769 76.4398 1.86901C76.3199 1.62086 76.1529 1.44128 75.9383 1.33081C75.7268 1.21721 75.4629 1.16066 75.1467 1.16066C74.886 1.16066 74.6561 1.21092 74.4567 1.31249C74.2603 1.41039 74.0933 1.55489 73.9551 1.74493C73.8201 1.93183 73.7174 2.16218 73.6468 2.43494C73.5761 2.70508 73.541 3.01344 73.541 3.36002V4.80495C73.541 5.14524 73.5745 5.45518 73.6421 5.73422C73.7096 6.01012 73.808 6.24833 73.9368 6.44727C74.0687 6.64674 74.231 6.80013 74.4242 6.90745C74.6205 7.01216 74.8477 7.06398 75.1053 7.06398C75.4367 7.06398 75.7111 7.01216 75.9288 6.90745C76.1466 6.80327 76.3157 6.6284 76.4351 6.38287C76.555 6.13472 76.6298 5.79548 76.6607 5.36618ZM80.8683 1.16537L78.9355 7.45977H78.3926L80.5228 0.760168H80.8956L80.8683 1.16537ZM82.5981 7.45977L80.6657 1.16537L80.6427 0.760168H81.0107L83.1457 7.45977H82.5981ZM82.2991 5.09028V5.58711H79.2763V5.09028H82.2991ZM85.0754 6.58077V7.22995C85.0754 7.50899 85.0173 7.78017 84.9006 8.04403C84.787 8.31103 84.6309 8.5351 84.4315 8.71571L84.1048 8.47227C84.1996 8.34349 84.2781 8.21418 84.3393 8.08539C84.4037 7.95975 84.4514 7.82781 84.4817 7.6896C84.5158 7.55191 84.5325 7.40166 84.5325 7.23884V6.58077H85.0754ZM92.8645 0.760168H93.3891V5.48136C93.3891 5.98447 93.2985 6.38759 93.1179 6.69124C92.9399 6.99174 92.6991 7.2111 92.3954 7.34931C92.0949 7.48752 91.7619 7.55662 91.397 7.55662C91.0227 7.55662 90.685 7.48909 90.3845 7.35402C90.084 7.21581 89.8463 6.99489 89.6715 6.69124C89.4966 6.38759 89.4092 5.98447 89.4092 5.48136V0.760168H89.9338V5.48136C89.9338 5.87087 89.9966 6.18236 90.1222 6.41533C90.2479 6.64516 90.4212 6.81112 90.6421 6.91217C90.863 7.01321 91.1149 7.06398 91.397 7.06398C91.685 7.06398 91.9384 7.01321 92.1562 6.91217C92.3771 6.80798 92.5504 6.64097 92.676 6.41062C92.8017 6.18079 92.8645 5.87087 92.8645 5.48136V0.760168ZM98.494 5.80332C98.494 5.62218 98.4694 5.46146 98.4202 5.32011C98.3715 5.17613 98.2898 5.04734 98.1762 4.93374C98.0631 4.82013 97.9082 4.71438 97.7118 4.61596C97.5187 4.51492 97.2794 4.41545 96.9941 4.31703C96.7119 4.22175 96.457 4.11755 96.2303 4.00395C96.0062 3.89087 95.813 3.76052 95.6502 3.61288C95.491 3.46577 95.368 3.29405 95.2822 3.09773C95.1994 2.9014 95.1581 2.67158 95.1581 2.40772C95.1581 2.147 95.2041 1.91036 95.2963 1.69886C95.391 1.48421 95.523 1.29993 95.6916 1.14654C95.8606 0.993142 96.0601 0.875351 96.2899 0.792633C96.5198 0.709392 96.7747 0.66803 97.0538 0.66803C97.4527 0.66803 97.7961 0.758591 98.0846 0.939732C98.3757 1.11773 98.5998 1.35856 98.7563 1.66221C98.9128 1.96271 98.9908 2.29883 98.9908 2.67001H98.4663C98.4663 2.3784 98.4113 2.11924 98.3008 1.89203C98.1935 1.66534 98.0338 1.48735 97.8223 1.35857C97.6134 1.22664 97.359 1.16066 97.0585 1.16066C96.758 1.16066 96.5046 1.21721 96.2994 1.33081C96.0968 1.44128 95.9449 1.58996 95.8434 1.77738C95.7423 1.96114 95.6916 2.16532 95.6916 2.38886C95.6916 2.54854 95.7162 2.69565 95.7654 2.83072C95.8146 2.96579 95.8957 3.08987 96.0093 3.20348C96.1255 3.31708 96.279 3.4244 96.4695 3.52544C96.6596 3.62386 96.8894 3.71601 97.1595 3.80187C97.4632 3.89977 97.7302 4.00866 97.96 4.12855C98.1935 4.24478 98.3882 4.38299 98.5448 4.54267C98.7039 4.69921 98.8238 4.87982 98.9034 5.08556C98.9861 5.29079 99.0275 5.52742 99.0275 5.7939C99.0275 6.07032 98.9804 6.31691 98.8851 6.5347C98.7898 6.74987 98.6553 6.93362 98.4804 7.08702C98.3055 7.23727 98.0998 7.35244 97.8637 7.43202C97.6276 7.51212 97.3668 7.55191 97.0815 7.55191C96.8328 7.55191 96.5831 7.51369 96.3313 7.43673C96.0826 7.3603 95.8559 7.24041 95.6502 7.07812C95.4481 6.9153 95.2853 6.70694 95.1628 6.45198C95.0398 6.19755 94.9785 5.89389 94.9785 5.54103H95.5078C95.5078 5.82007 95.5539 6.05776 95.6455 6.25408C95.7408 6.44726 95.8638 6.6038 96.014 6.72369C96.1643 6.83991 96.3329 6.92577 96.5198 6.98127C96.7072 7.03362 96.8957 7.05927 97.0857 7.05927C97.3742 7.05927 97.6229 7.00745 97.8312 6.90327C98.0432 6.79856 98.2055 6.65301 98.3191 6.46611C98.4359 6.27554 98.494 6.05462 98.494 5.80332ZM102.586 1.16537L100.654 7.45977H100.111L102.241 0.760168H102.614L102.586 1.16537ZM104.317 7.45977L102.384 1.16537L102.361 0.760168H102.729L104.864 7.45977H104.317ZM104.017 5.09028V5.58711H100.994V5.09028H104.017Z" fill="#4D4D4D"/>
</svg>
