<svg width="738" height="29" viewBox="0 0 738 29" fill="none" xmlns="http://www.w3.org/2000/svg">
<path d="M31.5 5.67V7.3H26.87V20H24.93V7.3H20.28V5.67H31.5ZM35.1575 9.71C35.7642 9.71 36.3242 9.81333 36.8375 10.02C37.3508 10.22 37.7942 10.5133 38.1675 10.9C38.5408 11.28 38.8308 11.7533 39.0375 12.32C39.2508 12.88 39.3575 13.52 39.3575 14.24C39.3575 14.52 39.3275 14.7067 39.2675 14.8C39.2075 14.8933 39.0942 14.94 38.9275 14.94H32.1875C32.2008 15.58 32.2875 16.1367 32.4475 16.61C32.6075 17.0833 32.8275 17.48 33.1075 17.8C33.3875 18.1133 33.7208 18.35 34.1075 18.51C34.4942 18.6633 34.9275 18.74 35.4075 18.74C35.8542 18.74 36.2375 18.69 36.5575 18.59C36.8842 18.4833 37.1642 18.37 37.3975 18.25C37.6308 18.13 37.8242 18.02 37.9775 17.92C38.1375 17.8133 38.2742 17.76 38.3875 17.76C38.5342 17.76 38.6475 17.8167 38.7275 17.93L39.2275 18.58C39.0075 18.8467 38.7442 19.08 38.4375 19.28C38.1308 19.4733 37.8008 19.6333 37.4475 19.76C37.1008 19.8867 36.7408 19.98 36.3675 20.04C35.9942 20.1067 35.6242 20.14 35.2575 20.14C34.5575 20.14 33.9108 20.0233 33.3175 19.79C32.7308 19.55 32.2208 19.2033 31.7875 18.75C31.3608 18.29 31.0275 17.7233 30.7875 17.05C30.5475 16.3767 30.4275 15.6033 30.4275 14.73C30.4275 14.0233 30.5342 13.3633 30.7475 12.75C30.9675 12.1367 31.2808 11.6067 31.6875 11.16C32.0942 10.7067 32.5908 10.3533 33.1775 10.1C33.7642 9.84 34.4242 9.71 35.1575 9.71ZM35.1975 11.02C34.3375 11.02 33.6608 11.27 33.1675 11.77C32.6742 12.2633 32.3675 12.95 32.2475 13.83H37.7575C37.7575 13.4167 37.7008 13.04 37.5875 12.7C37.4742 12.3533 37.3075 12.0567 37.0875 11.81C36.8675 11.5567 36.5975 11.3633 36.2775 11.23C35.9642 11.09 35.6042 11.02 35.1975 11.02ZM41.6358 20V9.87H42.6958C42.9491 9.87 43.1091 9.99333 43.1758 10.24L43.3058 11.28C43.6791 10.82 44.0958 10.4433 44.5558 10.15C45.0224 9.85667 45.5624 9.71 46.1758 9.71C46.8624 9.71 47.4158 9.9 47.8358 10.28C48.2624 10.66 48.5691 11.1733 48.7558 11.82C48.8958 11.4533 49.0791 11.1367 49.3058 10.87C49.5391 10.6033 49.7991 10.3833 50.0858 10.21C50.3724 10.0367 50.6758 9.91 50.9958 9.83C51.3224 9.75 51.6524 9.71 51.9858 9.71C52.5191 9.71 52.9924 9.79667 53.4058 9.97C53.8258 10.1367 54.1791 10.3833 54.4658 10.71C54.7591 11.0367 54.9824 11.44 55.1358 11.92C55.2891 12.3933 55.3658 12.9367 55.3658 13.55V20H53.5858V13.55C53.5858 12.7567 53.4124 12.1567 53.0658 11.75C52.7191 11.3367 52.2158 11.13 51.5558 11.13C51.2624 11.13 50.9824 11.1833 50.7158 11.29C50.4558 11.39 50.2258 11.54 50.0258 11.74C49.8258 11.94 49.6658 12.1933 49.5458 12.5C49.4324 12.8 49.3758 13.15 49.3758 13.55V20H47.5958V13.55C47.5958 12.7367 47.4324 12.13 47.1058 11.73C46.7791 11.33 46.3024 11.13 45.6758 11.13C45.2358 11.13 44.8258 11.25 44.4458 11.49C44.0724 11.7233 43.7291 12.0433 43.4158 12.45V20H41.6358ZM58.0616 23.43V9.87H59.1216C59.3749 9.87 59.5349 9.99333 59.6016 10.24L59.7516 11.44C60.1849 10.9133 60.6782 10.49 61.2316 10.17C61.7916 9.85 62.4349 9.69 63.1616 9.69C63.7416 9.69 64.2682 9.80333 64.7416 10.03C65.2149 10.25 65.6182 10.58 65.9516 11.02C66.2849 11.4533 66.5416 11.9933 66.7216 12.64C66.9016 13.2867 66.9916 14.03 66.9916 14.87C66.9916 15.6167 66.8916 16.3133 66.6916 16.96C66.4916 17.6 66.2049 18.1567 65.8316 18.63C65.4582 19.0967 64.9982 19.4667 64.4516 19.74C63.9116 20.0067 63.3016 20.14 62.6216 20.14C61.9949 20.14 61.4582 20.0367 61.0116 19.83C60.5716 19.6233 60.1816 19.33 59.8416 18.95V23.43H58.0616ZM62.5716 11.13C61.9916 11.13 61.4816 11.2633 61.0416 11.53C60.6082 11.7967 60.2082 12.1733 59.8416 12.66V17.56C60.1682 18 60.5249 18.31 60.9116 18.49C61.3049 18.67 61.7416 18.76 62.2216 18.76C63.1616 18.76 63.8849 18.4233 64.3916 17.75C64.8982 17.0767 65.1516 16.1167 65.1516 14.87C65.1516 14.21 65.0916 13.6433 64.9716 13.17C64.8582 12.6967 64.6916 12.31 64.4716 12.01C64.2516 11.7033 63.9816 11.48 63.6616 11.34C63.3416 11.2 62.9782 11.13 62.5716 11.13ZM71.0767 5.27V20H69.2967V5.27H71.0767ZM81.6539 20H80.8639C80.6906 20 80.5506 19.9733 80.4439 19.92C80.3372 19.8667 80.2672 19.7533 80.2339 19.58L80.0339 18.64C79.7672 18.88 79.5072 19.0967 79.2539 19.29C79.0006 19.4767 78.7339 19.6367 78.4539 19.77C78.1739 19.8967 77.8739 19.9933 77.5539 20.06C77.2406 20.1267 76.8906 20.16 76.5039 20.16C76.1106 20.16 75.7406 20.1067 75.3939 20C75.0539 19.8867 74.7572 19.72 74.5039 19.5C74.2506 19.28 74.0472 19.0033 73.8939 18.67C73.7472 18.33 73.6739 17.93 73.6739 17.47C73.6739 17.07 73.7839 16.6867 74.0039 16.32C74.2239 15.9467 74.5772 15.6167 75.0639 15.33C75.5572 15.0433 76.2006 14.81 76.9939 14.63C77.7872 14.4433 78.7572 14.3367 79.9039 14.31V13.52C79.9039 12.7333 79.7339 12.14 79.3939 11.74C79.0606 11.3333 78.5639 11.13 77.9039 11.13C77.4706 11.13 77.1039 11.1867 76.8039 11.3C76.5106 11.4067 76.2539 11.53 76.0339 11.67C75.8206 11.8033 75.6339 11.9267 75.4739 12.04C75.3206 12.1467 75.1672 12.2 75.0139 12.2C74.8939 12.2 74.7872 12.17 74.6939 12.11C74.6072 12.0433 74.5372 11.9633 74.4839 11.87L74.1639 11.3C74.7239 10.76 75.3272 10.3567 75.9739 10.09C76.6206 9.82333 77.3372 9.69 78.1239 9.69C78.6906 9.69 79.1939 9.78333 79.6339 9.97C80.0739 10.1567 80.4439 10.4167 80.7439 10.75C81.0439 11.0833 81.2706 11.4867 81.4239 11.96C81.5772 12.4333 81.6539 12.9533 81.6539 13.52V20ZM77.0339 18.91C77.3472 18.91 77.6339 18.88 77.8939 18.82C78.1539 18.7533 78.3972 18.6633 78.6239 18.55C78.8572 18.43 79.0772 18.2867 79.2839 18.12C79.4972 17.9533 79.7039 17.7633 79.9039 17.55V15.44C79.0839 15.4667 78.3872 15.5333 77.8139 15.64C77.2406 15.74 76.7739 15.8733 76.4139 16.04C76.0539 16.2067 75.7906 16.4033 75.6239 16.63C75.4639 16.8567 75.3839 17.11 75.3839 17.39C75.3839 17.6567 75.4272 17.8867 75.5139 18.08C75.6006 18.2733 75.7172 18.4333 75.8639 18.56C76.0106 18.68 76.1839 18.77 76.3839 18.83C76.5839 18.8833 76.8006 18.91 77.0339 18.91ZM87.4206 20.16C86.6206 20.16 86.004 19.9367 85.5706 19.49C85.144 19.0433 84.9306 18.4 84.9306 17.56V11.36H83.7106C83.604 11.36 83.514 11.33 83.4406 11.27C83.3673 11.2033 83.3306 11.1033 83.3306 10.97V10.26L84.9906 10.05L85.4006 6.92C85.414 6.82 85.4573 6.74 85.5306 6.68C85.604 6.61333 85.6973 6.58 85.8106 6.58H86.7106V10.07H89.6106V11.36H86.7106V17.44C86.7106 17.8667 86.814 18.1833 87.0206 18.39C87.2273 18.5967 87.494 18.7 87.8206 18.7C88.0073 18.7 88.1673 18.6767 88.3006 18.63C88.4406 18.5767 88.5606 18.52 88.6606 18.46C88.7606 18.4 88.844 18.3467 88.9106 18.3C88.984 18.2467 89.0473 18.22 89.1006 18.22C89.194 18.22 89.2773 18.2767 89.3506 18.39L89.8706 19.24C89.564 19.5267 89.194 19.7533 88.7606 19.92C88.3273 20.08 87.8806 20.16 87.4206 20.16ZM95.8216 9.71C96.4282 9.71 96.9882 9.81333 97.5016 10.02C98.0149 10.22 98.4582 10.5133 98.8316 10.9C99.2049 11.28 99.4949 11.7533 99.7016 12.32C99.9149 12.88 100.022 13.52 100.022 14.24C100.022 14.52 99.9916 14.7067 99.9316 14.8C99.8716 14.8933 99.7582 14.94 99.5916 14.94H92.8516C92.8649 15.58 92.9516 16.1367 93.1116 16.61C93.2716 17.0833 93.4916 17.48 93.7716 17.8C94.0516 18.1133 94.3849 18.35 94.7716 18.51C95.1582 18.6633 95.5916 18.74 96.0716 18.74C96.5182 18.74 96.9016 18.69 97.2216 18.59C97.5482 18.4833 97.8282 18.37 98.0616 18.25C98.2949 18.13 98.4882 18.02 98.6416 17.92C98.8016 17.8133 98.9382 17.76 99.0516 17.76C99.1982 17.76 99.3116 17.8167 99.3916 17.93L99.8916 18.58C99.6716 18.8467 99.4082 19.08 99.1016 19.28C98.7949 19.4733 98.4649 19.6333 98.1116 19.76C97.7649 19.8867 97.4049 19.98 97.0316 20.04C96.6582 20.1067 96.2882 20.14 95.9216 20.14C95.2216 20.14 94.5749 20.0233 93.9816 19.79C93.3949 19.55 92.8849 19.2033 92.4516 18.75C92.0249 18.29 91.6916 17.7233 91.4516 17.05C91.2116 16.3767 91.0916 15.6033 91.0916 14.73C91.0916 14.0233 91.1982 13.3633 91.4116 12.75C91.6316 12.1367 91.9449 11.6067 92.3516 11.16C92.7582 10.7067 93.2549 10.3533 93.8416 10.1C94.4282 9.84 95.0882 9.71 95.8216 9.71ZM95.8616 11.02C95.0016 11.02 94.3249 11.27 93.8316 11.77C93.3382 12.2633 93.0316 12.95 92.9116 13.83H98.4216C98.4216 13.4167 98.3649 13.04 98.2516 12.7C98.1382 12.3533 97.9716 12.0567 97.7516 11.81C97.5316 11.5567 97.2616 11.3633 96.9416 11.23C96.6282 11.09 96.2682 11.02 95.8616 11.02ZM111.207 11.22C111.78 11.22 112.324 11.3167 112.837 11.51C113.35 11.6967 113.8 11.9733 114.187 12.34C114.574 12.7 114.88 13.1467 115.107 13.68C115.334 14.2067 115.447 14.81 115.447 15.49C115.447 16.15 115.327 16.7633 115.087 17.33C114.847 17.8967 114.51 18.39 114.077 18.81C113.65 19.23 113.134 19.56 112.527 19.8C111.92 20.04 111.254 20.16 110.527 20.16C109.807 20.16 109.154 20.0467 108.567 19.82C107.987 19.5867 107.49 19.26 107.077 18.84C106.664 18.4133 106.344 17.9 106.117 17.3C105.897 16.6933 105.787 16.0167 105.787 15.27C105.787 14.6433 105.927 13.9767 106.207 13.27C106.487 12.5633 106.93 11.8033 107.537 10.99L111.167 6.1C111.26 5.98 111.39 5.88 111.557 5.8C111.724 5.71333 111.914 5.67 112.127 5.67H113.707L108.737 11.96C109.077 11.7267 109.454 11.5467 109.867 11.42C110.28 11.2867 110.727 11.22 111.207 11.22ZM107.507 15.58C107.507 16.04 107.574 16.46 107.707 16.84C107.84 17.22 108.034 17.5467 108.287 17.82C108.547 18.0933 108.86 18.3067 109.227 18.46C109.6 18.6067 110.024 18.68 110.497 18.68C110.977 18.68 111.41 18.6033 111.797 18.45C112.184 18.2967 112.514 18.0833 112.787 17.81C113.067 17.5367 113.28 17.2133 113.427 16.84C113.58 16.4667 113.657 16.06 113.657 15.62C113.657 15.1533 113.584 14.7333 113.437 14.36C113.29 13.98 113.084 13.66 112.817 13.4C112.55 13.1333 112.23 12.93 111.857 12.79C111.484 12.65 111.074 12.58 110.627 12.58C110.147 12.58 109.714 12.6633 109.327 12.83C108.94 12.99 108.61 13.21 108.337 13.49C108.07 13.7633 107.864 14.0833 107.717 14.45C107.577 14.81 107.507 15.1867 107.507 15.58ZM122.319 5.51C122.925 5.51 123.492 5.6 124.019 5.78C124.545 5.96 124.999 6.22333 125.379 6.57C125.765 6.91 126.069 7.32667 126.289 7.82C126.509 8.31333 126.619 8.87333 126.619 9.5C126.619 10.0333 126.539 10.5267 126.379 10.98C126.219 11.4333 126.002 11.87 125.729 12.29C125.455 12.7033 125.139 13.1067 124.779 13.5C124.425 13.8867 124.049 14.2833 123.649 14.69L119.879 18.55C120.145 18.4767 120.415 18.42 120.689 18.38C120.962 18.3333 121.225 18.31 121.479 18.31H126.279C126.472 18.31 126.625 18.3667 126.739 18.48C126.852 18.5933 126.909 18.74 126.909 18.92V20H117.349V19.39C117.349 19.2633 117.372 19.1333 117.419 19C117.472 18.8667 117.555 18.7433 117.669 18.63L122.259 14.02C122.639 13.6333 122.985 13.2633 123.299 12.91C123.612 12.55 123.879 12.19 124.099 11.83C124.325 11.47 124.499 11.1067 124.619 10.74C124.739 10.3667 124.799 9.97 124.799 9.55C124.799 9.13 124.732 8.76333 124.599 8.45C124.465 8.13 124.282 7.86667 124.049 7.66C123.815 7.45333 123.542 7.3 123.229 7.2C122.915 7.09333 122.579 7.04 122.219 7.04C121.859 7.04 121.525 7.09333 121.219 7.2C120.912 7.30667 120.639 7.45667 120.399 7.65C120.165 7.83667 119.965 8.06 119.799 8.32C119.639 8.58 119.525 8.86667 119.459 9.18C119.405 9.37333 119.325 9.51333 119.219 9.6C119.112 9.68667 118.972 9.73 118.799 9.73C118.765 9.73 118.729 9.73 118.689 9.73C118.655 9.72333 118.615 9.71667 118.569 9.71L117.639 9.55C117.732 8.89667 117.912 8.32 118.179 7.82C118.445 7.31333 118.782 6.89 119.189 6.55C119.602 6.21 120.072 5.95333 120.599 5.78C121.132 5.6 121.705 5.51 122.319 5.51Z" fill="#959595"/>
<path d="M20 28.0001L718 28" stroke="#959595" stroke-linecap="round"/>
</svg>
