<svg width="22" height="11" viewBox="0 0 22 11" fill="none" xmlns="http://www.w3.org/2000/svg">
<path d="M9.54852 5.14212C10.0642 4.27829 10.0637 4.29976 9.57679 4.08511C9.34329 3.9825 9.07944 3.90135 8.99044 3.90554C8.90144 3.9092 8.74438 3.81811 8.64019 3.70294C8.42083 3.45897 7.1963 2.90822 6.69528 2.82864C6.11364 2.73598 5.28018 2.93911 4.33887 3.40243C3.26564 3.93067 2.46045 4.52122 1.52334 5.46566C0.718672 6.27766 0.328125 6.95144 0.328125 7.52889C0.328125 8.07964 0.546436 8.32622 1.3977 8.73824C2.08247 9.06964 2.22435 9.10576 2.95049 9.13507C3.56825 9.1602 3.90226 9.12566 4.41898 8.98483C5.23778 8.76076 6.43508 8.16865 7.13923 7.63883L7.66434 7.24409L7.71146 7.65297C7.77899 8.24298 7.92506 8.44297 8.46796 8.6906C9.08834 8.9733 9.48203 8.92671 10.1438 8.49166C10.6354 8.16812 12.1468 6.72004 12.8666 5.88291C13.2965 5.38294 13.3043 5.34839 12.6489 6.84149C12.0861 8.12362 11.5767 9.58008 11.5395 10.012C11.5154 10.2952 11.5306 10.3099 12.1709 10.5968C12.5316 10.7591 12.886 10.8821 12.9583 10.8711C13.0316 10.8596 13.4399 10.1701 13.8771 9.32041C15.2367 6.67815 15.9743 5.59183 16.6936 5.17143L17.1151 4.92537L19.1275 4.91282C20.2348 4.90601 21.2583 4.8636 21.4028 4.8191C21.6787 4.73324 21.7913 4.4919 21.63 4.3317C21.4829 4.18459 16.3382 4.17883 15.912 4.32489C15.7314 4.38667 15.5838 4.42174 15.5838 4.40237C15.5838 4.383 15.8754 3.64954 16.2324 2.7721C16.5889 1.89467 16.9083 1.02927 16.9423 0.849176L17.0036 0.521451L16.4465 0.264919C15.9303 0.0267128 15.8817 0.0188632 15.7796 0.157075C15.7183 0.238746 15.1597 1.07011 14.5378 2.00461C13.1195 4.13537 12.0353 5.52325 10.9013 6.65826C10.0406 7.51947 9.1475 8.20476 8.85746 8.2257C8.73757 8.2346 8.71769 8.1498 8.73444 7.70165C8.76062 6.9996 9.12656 5.84888 9.54852 5.14212ZM7.09841 6.30593C6.02256 7.31372 4.9111 7.94248 3.60228 8.28382C2.96933 8.44873 1.9343 8.51417 1.81599 8.39586C1.78405 8.36392 1.75735 8.19534 1.75735 8.02101C1.75735 7.57967 2.11178 7.06609 2.99655 6.22373C4.30275 4.98035 5.81627 4.05318 6.97903 3.78513C7.63083 3.63435 7.74758 3.68932 7.67009 4.11129C7.6324 4.31861 7.6701 4.36101 8.01772 4.50341C8.23184 4.59084 8.40775 4.70863 8.40775 4.76413C8.40827 4.92799 7.78319 5.6646 7.09841 6.30593Z" fill="#F06111"/>
</svg>
