<svg width="56" height="36" viewBox="0 0 56 36" fill="none" xmlns="http://www.w3.org/2000/svg">
<path d="M25.7651 1.5364C25.7447 1.48352 25.5033 1.33117 25.2295 1.19714L24.7306 0.953186L24.484 1.24531C24.1353 1.65838 23.2035 3.18342 22.1486 5.0676C21.6522 5.95446 21.158 6.81828 21.0507 6.98791L20.856 7.29627L17.2787 7.49416C10.5524 7.86586 6.62172 8.16742 2.89471 8.59828C0.110057 8.91973 0.219489 8.88518 0.744066 9.28306L1.04299 9.51079L3.25962 9.25217C7.18504 8.79408 10.2718 8.55011 16.4583 8.2072C20.679 7.97319 20.4837 7.98261 20.4837 8.02031C20.4837 8.03811 20.2309 8.53127 19.9225 9.11501C17.1436 14.3744 12.8224 22.9744 11.0084 26.8553C10.8403 27.215 10.4032 28.1495 10.0367 28.9316C9.67024 29.7143 9.37025 30.3672 9.37025 30.3829C9.37025 30.3986 9.21737 30.7389 9.03047 31.1394C8.70484 31.8367 8.10645 33.2345 7.89808 33.7842C7.71171 34.2769 7.6112 34.9109 7.66669 35.2407H7.66722C7.73318 35.6318 7.80962 35.6449 8.24729 35.3428C8.67972 35.0444 8.99854 34.536 9.66971 33.0722C12.0266 27.9354 18.4619 15.0984 21.6884 9.09826C22.1569 8.2271 22.4019 7.85644 22.5093 7.85644C22.5936 7.85644 25.0568 7.72032 27.9828 7.55384C39.8245 6.88058 44.4153 6.62981 47.9607 6.46333C50.0061 6.36752 52.2311 6.24764 52.9049 6.19738C53.5787 6.14712 54.4446 6.08272 54.8299 6.05445C56.1911 5.95393 55.7508 5.87174 53.5095 5.80683C50.9956 5.73405 46.9748 5.8419 41.9662 6.11728C40.2339 6.21256 36.3352 6.42563 33.3034 6.59159C30.2711 6.75755 26.6755 6.95702 25.3133 7.03555C23.9511 7.11408 22.8181 7.16015 22.7962 7.13816C22.7579 7.10047 24.8243 3.28027 25.4939 2.15154C25.663 1.86569 25.785 1.58875 25.7651 1.5364Z" fill="#F06111"/>
</svg>
