<svg width="8" height="14" viewBox="0 0 8 14" fill="none" xmlns="http://www.w3.org/2000/svg">
<path d="M7.10792 2.88537C7.10792 2.69899 7.21156 2.19902 7.33878 1.77444C7.70839 0.538906 7.71678 0.609061 7.15922 0.272955C6.89169 0.111708 6.6226 -0.000849221 6.56082 0.0227096C6.47077 0.0572625 5.61218 1.52471 4.30545 3.87798C1.55064 8.83894 0.144444 11.9047 0.314591 12.5801C0.346003 12.7042 0.522954 12.8858 0.740742 13.0172C1.23652 13.3167 1.35746 13.2832 1.43652 12.8235C1.55588 12.1246 2.80764 9.50592 4.35833 6.71028C5.09232 5.38627 6.43465 3.00316 6.46606 2.96756C6.48491 2.9461 6.61369 2.99478 6.7519 3.07645C7.09534 3.27801 7.10792 3.27121 7.10792 2.88537Z" fill="#F06111"/>
</svg>
