<svg width="50" height="29" viewBox="0 0 50 29" fill="none" xmlns="http://www.w3.org/2000/svg">
<path d="M48.6696 7.86261C47.1718 7.43803 45.8635 7.29249 43.5506 7.29354C40.4597 7.29511 36.9468 7.66525 32.9418 8.4118L31.3021 8.71754L30.4393 8.28668C28.0866 7.11031 24.6721 5.93289 22.3304 5.49051C21.4168 5.31774 21.422 5.32821 22.0796 4.97274C24.2575 3.79427 26.039 2.51371 26.3673 1.89071C26.55 1.54466 26.4657 1.38708 25.927 1.06616C25.2977 0.691309 25.0265 0.703354 23.6428 1.16825C21.9508 1.73628 20.8818 2.21635 17.6793 3.84505C14.7277 5.34601 13.7686 5.75174 13.1707 5.75174C12.8629 5.75174 12.8367 5.73238 12.8409 5.51197C12.8451 5.29366 12.9409 5.22508 13.9026 4.74919C16.136 3.64454 17.5081 2.72731 17.7317 2.18965C17.9154 1.74831 17.8238 1.55409 17.2547 1.1761C16.7684 0.853083 16.6883 0.828475 16.1611 0.839469C15.8082 0.846798 15.413 0.922712 15.1203 1.03946C13.6989 1.60487 12.2838 3.04405 11.9184 4.29686L11.775 4.78845L10.9268 5.0586C10.0541 5.33764 9.0924 5.47061 8.68614 5.36904C8.3715 5.28999 8.13958 4.8764 7.97414 4.09634C7.89771 3.73668 7.79405 3.33409 7.74326 3.20216C7.61971 2.87966 6.6962 2.31529 6.40878 2.38702C6.08733 2.46764 5.37429 3.06918 4.1864 4.26335C3.58644 4.86645 3.1116 5.31774 3.13097 5.26643C3.15034 5.21565 3.50111 4.59579 3.90999 3.88903C4.84291 2.27865 5.06489 1.84046 4.99997 1.73627C4.89736 1.57031 3.99793 1.05097 3.88695 1.09338C3.73565 1.15097 2.0881 3.79846 1.44939 5.00991C0.889214 6.07319 0.635835 6.86477 0.755724 7.17888C0.840535 7.40086 1.81481 8.01758 2.08129 8.01758C2.26924 8.01758 3.0985 7.21396 5.25126 4.94498C6.01299 4.14241 6.6873 3.48591 6.7496 3.48591C6.81452 3.48591 6.8873 3.63773 6.92028 3.84243C7.05064 4.65442 7.65008 5.34078 8.66206 5.83708C9.22904 6.11508 9.27355 6.12241 10.0573 6.07634C10.5525 6.04702 11.0813 5.95435 11.4195 5.83656C11.9708 5.64494 11.9729 5.64494 12.1634 5.81718C12.6105 6.2203 13.1461 6.44908 13.644 6.44908C14.4549 6.44908 15.2062 6.14858 18.2248 4.61517C21.0938 3.15871 22.4246 2.56031 23.8617 2.08023C24.5119 1.86297 24.5779 1.85407 24.3868 2.00694C24.0559 2.27132 21.9252 3.56548 20.8865 4.13247C20.3813 4.40837 19.8724 4.72667 19.7556 4.83923C19.4949 5.0921 19.5572 5.18738 20.2629 5.61405C20.6786 5.86483 20.9587 5.94649 22.0675 6.13968C24.9328 6.63912 28.3651 7.70346 30.2807 8.6856L30.6184 8.85889L29.4933 9.09919C24.1313 10.2426 17.7935 12.1566 13.8612 13.8193C5.46644 17.3699 0.12957 22.3775 1.25045 25.6537C1.54467 26.5139 2.86606 27.5756 4.35393 28.1468C5.2298 28.4834 6.60512 28.7562 7.84798 28.8404C8.40135 28.8781 8.93325 28.9142 9.02958 28.9205C9.49342 28.9519 12.1865 28.741 13.2806 28.5876C18.3573 27.8756 24.0711 25.9846 29.6504 23.1706C34.1056 20.9231 36.6478 18.8871 37.4902 16.8904C37.8226 16.1035 37.8226 15.0093 37.4902 14.2225C36.8923 12.8053 35.4762 11.3697 33.2051 9.8782L32.3167 9.29499L33.3616 9.09344C36.2829 8.52855 39.7639 8.08774 42.5883 7.92439C44.2746 7.82702 45.1835 7.84586 47.4886 8.02753C48.1383 8.07883 48.8272 8.10763 49.0199 8.09087C49.356 8.06208 49.3424 8.05318 48.6696 7.86261ZM14.1979 2.90636C14.9758 2.13991 15.8627 1.62267 16.5857 1.51377L16.9663 1.45618L16.8343 1.70853C16.7621 1.84726 16.6103 2.04463 16.4977 2.14725C16.2004 2.41791 15.1941 3.04458 14.2282 3.56025C13.7665 3.80684 13.3618 4.00839 13.3283 4.00839C13.1801 4.00839 13.5325 3.56234 14.1979 2.90636ZM36.4583 13.9335C37.4311 16.3909 35.4076 18.8997 30.1184 21.7927C24.4857 24.8742 17.6338 27.1908 11.9409 27.9389C10.9891 28.064 7.51238 28.1729 6.88519 28.097C4.54502 27.8148 3.32153 27.4112 2.71057 26.7202C2.10275 26.0322 1.94413 25.2836 2.20171 24.3192C3.07967 21.0325 8.48825 16.8888 15.626 14.0335C19.308 12.5608 25.4344 10.7577 30.2775 9.72167L31.7492 9.4065L32.2738 9.72376C34.2647 10.9284 35.9338 12.6074 36.4583 13.9335Z" fill="#F06111"/>
</svg>
