<svg width="94" height="8" viewBox="0 0 94 8" fill="none" xmlns="http://www.w3.org/2000/svg">
<path d="M4.24276 4.87009H4.77204C4.74115 5.37006 4.64169 5.78259 4.47259 6.1077C4.30401 6.42967 4.06947 6.66945 3.76897 6.82546C3.47108 6.982 3.11088 7.06053 2.68735 7.06053C2.36538 7.06053 2.07534 6.99719 1.81776 6.87154C1.56018 6.74589 1.33925 6.56319 1.1555 6.32393C0.974355 6.08468 0.834579 5.79674 0.736679 5.45906C0.641397 5.11876 0.59375 4.73501 0.59375 4.30885V2.87335C0.59375 2.45296 0.641397 2.07705 0.736679 1.74566C0.834579 1.41164 0.975931 1.1279 1.15969 0.894409C1.34711 0.658297 1.57066 0.478719 1.8319 0.356213C2.09524 0.233707 2.39469 0.171936 2.7287 0.171936C3.13392 0.171936 3.48206 0.248896 3.77366 0.40229C4.06789 0.555684 4.2993 0.793366 4.4684 1.11534C4.64012 1.43731 4.74115 1.85298 4.77204 2.36238H4.24276C4.21501 1.95141 4.14172 1.62159 4.02183 1.37292C3.90247 1.12476 3.73493 0.945184 3.52029 0.83472C3.30878 0.721114 3.04492 0.664566 2.7287 0.664566C2.46799 0.664566 2.23816 0.71483 2.0387 0.816394C1.84237 0.914294 1.67536 1.0588 1.53715 1.24884C1.40208 1.43574 1.29947 1.66609 1.22879 1.93885C1.15811 2.20899 1.12304 2.51735 1.12304 2.86392V4.30885C1.12304 4.64915 1.15655 4.95909 1.22408 5.23813C1.29162 5.51403 1.39004 5.75224 1.51883 5.95118C1.65075 6.15064 1.81305 6.30404 2.00676 6.41136C2.20308 6.51607 2.42977 6.56788 2.68735 6.56788C3.01874 6.56788 3.2936 6.51607 3.51139 6.41136C3.72917 6.30718 3.89775 6.13231 4.01712 5.88678C4.13701 5.63862 4.21187 5.29938 4.24276 4.87009ZM10.0696 6.47156V6.96368H6.94102V6.47156H10.0696ZM7.08814 0.264075V6.96368H6.55884V0.264075H7.08814ZM9.67856 3.2597V3.75653H6.94102V3.2597H9.67856ZM10.0471 0.264075V0.756721H6.94102V0.264075H10.0471ZM15.874 2.89166V4.34079C15.874 4.77951 15.8232 5.16902 15.7222 5.50983C15.6238 5.84699 15.4798 6.13074 15.2897 6.3611C15.1023 6.59093 14.8756 6.76579 14.6086 6.88568C14.3448 7.0019 14.0458 7.06053 13.7113 7.06053C13.3831 7.06053 13.0857 7.0019 12.8187 6.88568C12.5517 6.76579 12.3234 6.59093 12.1329 6.3611C11.9428 6.13074 11.7957 5.84699 11.6915 5.50983C11.59 5.16902 11.5397 4.77951 11.5397 4.34079V2.89166C11.5397 2.4498 11.59 2.05874 11.6915 1.71792C11.7926 1.37763 11.9365 1.09387 12.124 0.866657C12.314 0.639969 12.5428 0.468247 12.8093 0.3515C13.0763 0.232135 13.3742 0.171936 13.7024 0.171936C14.0396 0.171936 14.3416 0.232135 14.6086 0.3515C14.8756 0.468247 15.1023 0.639969 15.2897 0.866657C15.4798 1.09387 15.6238 1.37763 15.7222 1.71792C15.8232 2.05874 15.874 2.4498 15.874 2.89166ZM15.3494 4.34079V2.88225C15.3494 2.51735 15.3128 2.19695 15.239 1.92052C15.1683 1.64462 15.0641 1.41427 14.9259 1.23051C14.7882 1.04623 14.6165 0.908535 14.4107 0.816394C14.205 0.724253 13.9689 0.678178 13.7024 0.678178C13.4443 0.678178 13.2129 0.724253 13.0072 0.816394C12.8051 0.908535 12.6334 1.0478 12.492 1.23523C12.3538 1.41899 12.248 1.64934 12.1748 1.92524C12.1009 2.19799 12.0643 2.51735 12.0643 2.88225V4.34079C12.0643 4.70883 12.1009 5.03133 12.1748 5.30723C12.2512 5.57999 12.3601 5.81034 12.5014 5.99724C12.6423 6.18152 12.814 6.31974 13.0166 6.41136C13.2223 6.5035 13.4537 6.54957 13.7113 6.54957C13.9783 6.54957 14.2129 6.5035 14.4155 6.41136C14.6207 6.31974 14.7929 6.18152 14.9306 5.99724C15.0688 5.81034 15.173 5.57999 15.2437 5.30723C15.3144 5.03133 15.3494 4.70883 15.3494 4.34079ZM22.2412 0.669279L20.3088 6.96368H19.7659L21.8962 0.264075H22.2689L22.2412 0.669279ZM23.9714 6.96368L22.0391 0.669279L22.016 0.264075H22.3841L24.519 6.96368H23.9714ZM23.6725 4.59418V5.09102H20.6491V4.59418H23.6725ZM30.2082 0.264075V6.96368H29.679L26.5268 1.25354V6.96368H25.9933V0.264075H26.5268L29.6837 5.9742V0.264075H30.2082ZM33.8175 6.96368H32.561L32.5657 6.47156H33.8175C34.219 6.47156 34.5614 6.38674 34.8436 6.21817C35.1258 6.04959 35.3404 5.8025 35.4875 5.47738C35.6378 5.15227 35.7132 4.75491 35.7132 4.28583V2.92831C35.7132 2.57231 35.6702 2.25976 35.5844 1.98962C35.5017 1.71686 35.3786 1.48965 35.2163 1.30851C35.0566 1.12475 34.8619 0.98655 34.6315 0.894409C34.4017 0.802268 34.1426 0.756721 33.8541 0.756721H32.5338V0.264075H33.8541C34.2101 0.264075 34.5321 0.322178 34.8205 0.438925C35.1116 0.555672 35.3634 0.727394 35.5749 0.954083C35.787 1.18129 35.9493 1.46191 36.0629 1.79645C36.1765 2.12784 36.233 2.50792 36.233 2.93774V4.28583C36.233 4.71827 36.1765 5.10149 36.0629 5.43602C35.9493 5.76741 35.787 6.04646 35.5749 6.27367C35.3634 6.50036 35.109 6.67207 34.8111 6.78881C34.5169 6.90556 34.1855 6.96368 33.8175 6.96368ZM32.8097 0.264075V6.96368H32.2804V0.264075H32.8097ZM44.2064 4.87009H44.7357C44.7048 5.37006 44.6048 5.78259 44.4362 6.1077C44.2676 6.42967 44.0331 6.66945 43.7321 6.82546C43.4347 6.982 43.0745 7.06053 42.651 7.06053C42.329 7.06053 42.039 6.99719 41.7814 6.87154C41.5238 6.74589 41.3029 6.56319 41.1186 6.32393C40.938 6.08468 40.7982 5.79674 40.6998 5.45906C40.605 5.11876 40.5574 4.73501 40.5574 4.30885V2.87335C40.5574 2.45296 40.605 2.07705 40.6998 1.74566C40.7982 1.41164 40.9395 1.1279 41.1233 0.894409C41.3107 0.658297 41.5343 0.478719 41.795 0.356213C42.0588 0.233707 42.3578 0.171936 42.6923 0.171936C43.0975 0.171936 43.4457 0.248896 43.7368 0.40229C44.0315 0.555684 44.2629 0.793366 44.4315 1.11534C44.6037 1.43731 44.7048 1.85298 44.7357 2.36238H44.2064C44.1786 1.95141 44.1048 1.62159 43.9854 1.37292C43.8656 1.12476 43.6985 0.945184 43.4839 0.83472C43.2724 0.721114 43.0085 0.664566 42.6923 0.664566C42.4316 0.664566 42.2018 0.71483 42.0023 0.816394C41.806 0.914294 41.6385 1.0588 41.5008 1.24884C41.3657 1.43574 41.2631 1.66609 41.1924 1.93885C41.1217 2.20899 41.0867 2.51735 41.0867 2.86392V4.30885C41.0867 4.64915 41.1202 4.95909 41.1877 5.23813C41.2552 5.51403 41.3537 5.75224 41.4824 5.95118C41.6144 6.15064 41.7767 6.30404 41.9699 6.41136C42.1662 6.51607 42.3934 6.56788 42.651 6.56788C42.9824 6.56788 43.2567 6.51607 43.4745 6.41136C43.6923 6.30718 43.8614 6.13231 43.9807 5.88678C44.1006 5.63862 44.1755 5.29938 44.2064 4.87009ZM50.673 2.89166V4.34079C50.673 4.77951 50.6222 5.16902 50.5212 5.50983C50.4227 5.84699 50.2788 6.13074 50.0887 6.3611C49.9013 6.59093 49.6746 6.76579 49.4076 6.88568C49.1438 7.0019 48.8448 7.06053 48.5103 7.06053C48.1821 7.06053 47.8847 7.0019 47.6177 6.88568C47.3507 6.76579 47.1224 6.59093 46.9319 6.3611C46.7418 6.13074 46.5947 5.84699 46.4905 5.50983C46.389 5.16902 46.3387 4.77951 46.3387 4.34079V2.89166C46.3387 2.4498 46.389 2.05874 46.4905 1.71792C46.5916 1.37763 46.7355 1.09387 46.923 0.866657C47.113 0.639969 47.3418 0.468247 47.6083 0.3515C47.8753 0.232135 48.1732 0.171936 48.5009 0.171936C48.8386 0.171936 49.1406 0.232135 49.4076 0.3515C49.6746 0.468247 49.9013 0.639969 50.0887 0.866657C50.2788 1.09387 50.4227 1.37763 50.5212 1.71792C50.6222 2.05874 50.673 2.4498 50.673 2.89166ZM50.1484 4.34079V2.88225C50.1484 2.51735 50.1118 2.19695 50.038 1.92052C49.9673 1.64462 49.8631 1.41427 49.7249 1.23051C49.5872 1.04623 49.4155 0.908535 49.2097 0.816394C49.004 0.724253 48.7679 0.678178 48.5009 0.678178C48.2433 0.678178 48.0119 0.724253 47.8062 0.816394C47.6041 0.908535 47.4318 1.0478 47.291 1.23523C47.1528 1.41899 47.047 1.64934 46.9738 1.92524C46.8999 2.19799 46.8633 2.51735 46.8633 2.88225V4.34079C46.8633 4.70883 46.8999 5.03133 46.9738 5.30723C47.0502 5.57999 47.1591 5.81034 47.3004 5.99724C47.4413 6.18152 47.613 6.31974 47.8156 6.41136C48.0208 6.5035 48.2527 6.54957 48.5103 6.54957C48.7773 6.54957 49.0119 6.5035 49.2145 6.41136C49.4197 6.31974 49.5914 6.18152 49.7296 5.99724C49.8678 5.81034 49.972 5.57999 50.0427 5.30723C50.1134 5.03133 50.1484 4.70883 50.1484 4.34079ZM53.8864 3.77015V4.24865H52.0321V3.77015H53.8864ZM55.991 0.264075V6.96368H55.4623V0.264075H55.991ZM58.5589 3.33772V3.83926H55.8303V3.33772H58.5589ZM58.9453 0.264075V0.756721H55.8303V0.264075H58.9453ZM64.7125 2.89166V4.34079C64.7125 4.77951 64.6617 5.16902 64.5607 5.50983C64.4628 5.84699 64.3183 6.13074 64.1282 6.3611C63.9408 6.59093 63.7141 6.76579 63.4471 6.88568C63.1833 7.0019 62.8843 7.06053 62.5498 7.06053C62.2215 7.06053 61.9242 7.0019 61.6572 6.88568C61.3902 6.76579 61.1619 6.59093 60.9719 6.3611C60.7813 6.13074 60.6342 5.84699 60.53 5.50983C60.4285 5.16902 60.3782 4.77951 60.3782 4.34079V2.89166C60.3782 2.4498 60.4285 2.05874 60.53 1.71792C60.6311 1.37763 60.7755 1.09387 60.9624 0.866657C61.1525 0.639969 61.3813 0.468247 61.6483 0.3515C61.9148 0.232135 62.2126 0.171936 62.5409 0.171936C62.878 0.171936 63.1801 0.232135 63.4471 0.3515C63.7141 0.468247 63.9408 0.639969 64.1282 0.866657C64.3183 1.09387 64.4628 1.37763 64.5607 1.71792C64.6617 2.05874 64.7125 2.4498 64.7125 2.89166ZM64.1879 4.34079V2.88225C64.1879 2.51735 64.1513 2.19695 64.0774 1.92052C64.0068 1.64462 63.9026 1.41427 63.7649 1.23051C63.6267 1.04623 63.455 0.908535 63.2492 0.816394C63.044 0.724253 62.8074 0.678178 62.5409 0.678178C62.2828 0.678178 62.0514 0.724253 61.8462 0.816394C61.6436 0.908535 61.4718 1.0478 61.3305 1.23523C61.1923 1.41899 61.0865 1.64934 61.0132 1.92524C60.9394 2.19799 60.9028 2.51735 60.9028 2.88225V4.34079C60.9028 4.70883 60.9394 5.03133 61.0132 5.30723C61.0897 5.57999 61.1986 5.81034 61.3399 5.99724C61.4807 6.18152 61.6525 6.31974 61.8551 6.41136C62.0608 6.5035 62.2922 6.54957 62.5498 6.54957C62.8168 6.54957 63.0513 6.5035 63.2539 6.41136C63.4597 6.31974 63.6314 6.18152 63.7691 5.99724C63.9073 5.81034 64.0115 5.57999 64.0822 5.30723C64.1528 5.03133 64.1879 4.70883 64.1879 4.34079ZM69.9551 0.264075H70.4797V4.98527C70.4797 5.48838 70.3891 5.8915 70.2085 6.19514C70.0305 6.49565 69.7897 6.715 69.486 6.85321C69.1855 6.99143 68.8526 7.06053 68.4877 7.06053C68.1133 7.06053 67.7757 6.993 67.4752 6.85793C67.1746 6.71972 66.937 6.49879 66.7621 6.19514C66.5872 5.8915 66.4998 5.48838 66.4998 4.98527V0.264075H67.0244V4.98527C67.0244 5.37477 67.0872 5.68627 67.2129 5.91924C67.3385 6.14907 67.5118 6.31503 67.7327 6.41607C67.9537 6.51711 68.2055 6.56788 68.4877 6.56788C68.7756 6.56788 69.029 6.51711 69.2468 6.41607C69.4677 6.31189 69.641 6.14488 69.7666 5.91453C69.8923 5.6847 69.9551 5.37477 69.9551 4.98527V0.264075ZM76.6521 0.264075V6.96368H76.1228L72.9712 1.25354V6.96368H72.4372V0.264075H72.9712L76.1275 5.9742V0.264075H76.6521ZM80.2613 6.96368H79.0054L79.0096 6.47156H80.2613C80.6634 6.47156 81.0053 6.38674 81.2874 6.21817C81.5696 6.04959 81.7843 5.8025 81.9319 5.47738C82.0822 5.15227 82.157 4.75491 82.157 4.28583V2.92831C82.157 2.57231 82.1141 2.25976 82.0282 1.98962C81.9455 1.71686 81.823 1.48965 81.6602 1.30851C81.5005 1.12475 81.3058 0.98655 81.0759 0.894409C80.8456 0.802268 80.5864 0.756721 80.298 0.756721H78.9776V0.264075H80.298C80.654 0.264075 80.9759 0.322178 81.2644 0.438925C81.556 0.555672 81.8073 0.727394 82.0193 0.954083C82.2308 1.18129 82.3931 1.46191 82.5067 1.79645C82.6203 2.12784 82.6769 2.50792 82.6769 2.93774V4.28583C82.6769 4.71827 82.6203 5.10149 82.5067 5.43602C82.3931 5.76741 82.2308 6.04646 82.0193 6.27367C81.8073 6.50036 81.5529 6.67207 81.2555 6.78881C80.9608 6.90556 80.6294 6.96368 80.2613 6.96368ZM79.2535 0.264075V6.96368H78.7248V0.264075H79.2535ZM88.0807 6.47156V6.96368H84.9521V6.47156H88.0807ZM85.0992 0.264075V6.96368H84.57V0.264075H85.0992ZM87.6897 3.2597V3.75653H84.9521V3.2597H87.6897ZM88.0577 0.264075V0.756721H84.9521V0.264075H88.0577ZM89.7252 0.264075H91.5612C91.957 0.264075 92.2978 0.341035 92.5826 0.494429C92.871 0.644682 93.092 0.866651 93.2454 1.1614C93.4019 1.453 93.4799 1.81163 93.4799 2.2383C93.4799 2.55399 93.4249 2.84089 93.3145 3.09846C93.204 3.35604 93.0506 3.5712 92.8543 3.74292C92.6611 3.91464 92.4339 4.03243 92.1732 4.09682L91.9983 4.17537H90.0843L90.0749 3.68272H91.6486C91.9402 3.68272 92.1826 3.61518 92.3758 3.48063C92.569 3.34242 92.7129 3.16442 92.8082 2.94664C92.9066 2.72571 92.9553 2.4896 92.9553 2.2383C92.9553 1.93465 92.9019 1.67237 92.7946 1.45144C92.6904 1.23051 92.5339 1.06036 92.325 0.94047C92.1198 0.817965 91.8648 0.756721 91.5612 0.756721H90.2544V6.96368H89.7252V0.264075ZM93.1627 6.96368L91.7224 3.96385L92.2837 3.95914L93.7239 6.90399V6.96368H93.1627Z" fill="#4D4D4D"/>
</svg>
