<svg width="54" height="60" viewBox="0 0 54 60" fill="none" xmlns="http://www.w3.org/2000/svg">
<path d="M23.6297 59.0435C24.1428 58.7195 24.8516 57.9431 26.4678 55.9343C29.1216 52.6355 32.7098 47.673 36.1096 42.6C48.4314 24.2121 53.4049 13.8368 53.1756 6.99845C53.1254 5.49539 52.9997 4.88234 52.5348 3.86931C51.7234 2.10083 50.37 1.18675 47.778 0.655365C46.8278 0.460088 46.4572 0.429722 44.9766 0.426057C43.7511 0.422392 42.9867 0.465323 42.2637 0.577358C32.8742 2.03172 19.5274 9.65693 9.89755 19.0679C5.29782 23.5634 2.37077 27.5454 1.02111 31.1431C0.393922 32.8147 0.181369 34.7376 0.482922 36.0109C0.980275 38.1123 2.97911 39.8154 6.5611 41.1902C8.91646 42.0943 11.7875 42.7115 17.3683 43.5146C18.7159 43.7089 20.1865 43.9649 20.6357 44.0832C21.0854 44.202 21.488 44.2994 21.5304 44.2994C21.6147 44.2994 21.9084 43.7811 21.8544 43.7272C21.7801 43.6534 19.0729 43.1576 17.1495 42.866C16.0187 42.6948 14.6994 42.4927 14.2182 42.4178C9.75306 41.7205 5.8826 40.108 4.06753 38.1898C3.07387 37.1401 2.70478 36.1889 2.69954 34.6665C2.69588 33.633 2.80635 32.9613 3.16549 31.8368C5.85224 23.4163 19.7546 10.7694 33.1428 4.5656C37.8687 2.37516 41.6538 1.23438 45.0704 0.970524C46.675 0.846448 47.1744 0.927594 48.3497 1.50295C49.6523 2.14009 50.9213 3.54629 51.2925 4.76402C51.4564 5.30064 51.471 5.49853 51.4208 6.48538C51.3695 7.5005 51.1705 9.08471 50.925 10.4406C50.5993 12.2358 49.1947 16.267 48.0702 18.6334C47.2069 20.4495 45.4065 23.9184 44.3165 25.867C43.9673 26.49 43.4579 27.4114 43.1836 27.915C42.9092 28.4181 42.1867 29.6866 41.5774 30.7332L40.4701 32.6367L38.9801 33.354C36.6363 34.4816 35.0327 35.6266 33.1166 37.5396C30.1519 40.4996 27.1793 44.8789 24.7124 49.9205C22.8884 53.6496 21.8701 56.6217 21.8408 58.3059C21.8293 58.9367 21.9461 59.1064 22.4596 59.2053C23.0518 59.3195 23.2334 59.2943 23.6297 59.0435ZM23.2737 56.1563C24.0533 53.1167 26.6447 47.7589 29.1781 43.9507C31.9769 39.7426 34.606 36.914 37.4514 35.0492C38.1802 34.5712 39.6387 33.7948 39.6387 33.8848C39.6387 34.0361 36.8206 38.2725 35.116 40.6823C33.0082 43.6633 30.0016 47.806 28.0844 50.3713C27.0034 51.8173 25.4993 53.837 24.7422 54.8595C23.9847 55.882 23.3067 56.7971 23.2355 56.8929C23.0575 57.1316 23.0659 56.9672 23.2737 56.1563Z" fill="#F06111"/>
</svg>
