<svg width="49" height="66" viewBox="0 0 49 66" fill="none" xmlns="http://www.w3.org/2000/svg">
<path d="M47.7101 0.84388C47.6535 0.873722 47.1792 1.46688 46.6562 2.16213C46.1332 2.85685 45.5269 3.661 45.3086 3.94841C44.8725 4.52273 43.046 7.36653 42.2298 8.74184C40.6649 11.3789 35.2197 19.6025 32.1026 24.0373C29.2656 28.0732 25.6391 32.9724 23.845 35.1926C19.8457 40.1421 16.5229 43.1828 14.0262 44.179C13.3027 44.4675 13.1414 44.4806 12.5331 44.3005C11.5986 44.0241 10.9374 43.1283 10.7033 41.8221C10.3489 39.8432 10.7955 35.3089 11.975 28.9176C12.5619 25.7361 12.5435 25.4115 11.7891 25.6032C11.6289 25.644 11.352 25.7016 11.174 25.7319C10.8635 25.7843 10.8269 25.8298 10.307 26.8073C8.67467 29.8778 7.90769 31.2185 5.31256 35.5413C3.87966 37.9286 1.82271 41.1436 1.25311 41.8865C0.833765 42.4331 0.853132 42.5472 1.35415 42.4912C1.65989 42.4566 1.93842 42.3195 2.53315 41.91C2.96087 41.6148 3.56816 41.2535 3.88228 41.1075C4.1964 40.9609 4.45345 40.8033 4.45345 40.7567C4.45345 40.6405 3.71895 40.7562 3.21322 40.9525L2.80381 41.1112L4.04457 39.2013C5.28848 37.2852 8.17888 32.5713 9.5343 30.2469C9.9327 29.5637 10.2704 29.0166 10.2845 29.0307C10.2987 29.0448 10.1767 29.7212 10.0133 30.5343C8.94271 35.8659 8.53855 40.252 8.95057 42.0771C9.25631 43.4319 9.81073 44.2617 10.6908 44.6821C11.3541 44.9994 11.9363 45.0811 12.6582 44.9591C12.9587 44.9083 13.4503 44.8256 13.7513 44.7759C16.7601 44.2775 20.4352 41.107 25.4658 34.6696C29.3897 29.649 35.3778 21.1333 39.7147 14.407C40.2095 13.64 40.7445 12.8751 40.9042 12.7076C41.0633 12.5395 41.6801 11.6375 42.2743 10.703C43.4088 8.91775 44.426 7.39114 44.4815 7.39114C44.4993 7.39114 44.0904 8.30313 43.5726 9.4172C38.8205 19.6438 37.0672 22.8839 28.3699 45.1271C27.8165 46.5412 26.5176 49.8358 25.4826 52.4482C22.3608 60.3273 21.8974 61.5749 21.4833 63.213C21.2525 64.125 21.2043 65.2438 21.386 65.4631C21.5341 65.6422 21.6006 65.6422 22.5786 65.4673C23.1811 65.3595 23.4225 65.2736 23.6068 65.1019C23.9041 64.8249 24.1973 64.2386 24.1973 63.9203C24.1973 63.637 23.9884 63.2067 23.8005 63.1015C23.6188 63.0004 23.8732 62.2377 25.2946 58.6164C26.4998 55.5469 28.8033 49.4394 31.0236 43.4278C39.8053 19.6501 41.3371 16.61 46.8504 4.90699C48.565 1.26742 48.7456 0.860114 48.6859 0.764308C48.6294 0.67269 47.9252 0.729751 47.7101 0.84388Z" fill="#F06111"/>
</svg>
