<svg width="55" height="20" viewBox="0 0 55 20" fill="none" xmlns="http://www.w3.org/2000/svg">
<path d="M53.0243 9.91712C54.0295 9.68415 54.8724 9.47421 54.897 9.4496C54.9902 9.35642 55.0205 8.5507 54.9326 8.49626C54.821 8.42768 51.56 9.1046 49.5345 9.61661C48.1419 9.96842 45.8991 10.6202 45.0452 10.9202L44.6688 11.0526L44.2976 10.6836C43.7353 10.1234 43.2024 9.42081 42.9317 8.88315C42.5176 8.06068 42.5171 8.07168 43.0113 7.48009C43.7432 6.60423 44.0117 5.87913 43.7301 5.54093C43.6102 5.39696 42.6396 5.13101 42.2344 5.13101C41.8904 5.13101 41.3972 5.56135 41.2554 5.98489C41.1349 6.34508 41.1062 7.22775 41.203 7.58898C41.2575 7.79054 41.215 7.87168 40.9098 8.15282C39.3895 9.55378 37.0546 10.626 35.2128 10.7684C34.183 10.8485 34.1689 10.8213 34.8343 10.0354C35.5855 9.14805 35.9708 8.38003 35.9708 7.77169C35.9708 7.18324 35.8049 7.01362 35.0055 6.78589C34.2673 6.57595 33.9076 6.56757 33.538 6.7529C32.9166 7.06545 32.515 7.61777 32.3381 8.40464C32.2109 8.97057 32.3067 9.48835 32.6417 10.0422L32.9244 10.5098L32.4093 10.9359C31.0413 12.0673 29.4137 12.7876 28.1462 12.8227C27.4991 12.8405 27.1515 12.6013 26.7646 11.8715C26.5149 11.4008 26.4133 11.0448 26.2337 10.0114C26.1688 9.6365 26.1468 9.61295 25.7306 9.47369C24.9877 9.22554 24.9443 9.24229 24.4935 9.94591C23.4663 11.55 23.0915 12.072 22.6355 12.5311C22.0701 13.1007 21.6005 13.3651 21.4204 13.2159C20.9864 12.8573 20.8461 11.2736 21.0979 9.57997C21.1838 9.00199 21.2314 8.5062 21.2042 8.47898C21.1565 8.43134 19.9404 8.09838 19.8032 8.09576C19.7126 8.09366 18.2619 10.0511 16.8976 12.0159C16.2825 12.9028 15.7223 13.6871 15.6532 13.7588C15.5438 13.8734 15.5385 13.8624 15.6113 13.6719C15.8312 13.0934 16.683 11.3767 17.4704 9.92444C18.0384 8.87634 18.7761 7.70206 19.5781 6.56862C22.0356 3.09605 23.1177 1.36264 23.0067 1.07523C22.9831 1.01345 22.6947 0.897752 22.3654 0.817129C21.8031 0.679964 21.7539 0.68049 21.5387 0.820796C20.6775 1.38254 17.3541 6.54088 15.1312 10.7647C14.5459 11.8772 14.4114 12.0652 13.7512 12.6965C13.0361 13.3803 12.2272 13.931 11.9356 13.9326C11.8424 13.9331 11.7325 13.785 11.6293 13.5195C11.3833 12.884 11.4194 11.5631 11.7225 10.1092C12.0042 8.75645 12.0063 8.76116 11.2278 8.59887L10.732 8.49521L10.3645 8.78943C9.93626 9.13182 9.93835 9.10355 10.4106 8.05021C10.7624 7.26544 10.8195 6.72202 10.5723 6.50475C10.3765 6.33251 9.16143 6.00164 8.73371 6.00426C6.47729 6.01892 0.935211 12.1851 0.925787 14.6912C0.924217 15.1409 1.22316 15.3979 1.97442 15.5911C2.81626 15.8084 3.04818 15.8037 3.64762 15.5581C4.61981 15.1597 5.79619 14.2729 8.30442 12.0489C9.16248 11.2877 10.0253 10.5276 10.2216 10.36L10.5781 10.0548L10.5174 10.3166C10.4844 10.46 10.4336 11.0307 10.4048 11.5846C10.3184 13.2567 10.6483 13.9902 11.6006 14.2404C12.2586 14.4132 12.6806 14.4006 13.1088 14.1949C13.3078 14.0991 13.4994 14.0205 13.5339 14.0205C13.5685 14.0205 13.5214 14.2655 13.4287 14.565C13.1916 15.333 13.1298 16.0283 13.2811 16.2277C13.4177 16.4084 14.4595 16.722 14.9213 16.722C15.3935 16.722 15.9778 16.0351 17.8175 13.3174L19.4289 10.937L19.5373 11.5856C19.7661 12.9546 20.0922 13.3792 21.1366 13.6661C21.4968 13.7651 21.9497 13.8452 22.1434 13.8441C22.9329 13.8399 23.6585 13.285 24.594 11.9704C24.9176 11.516 25.1929 11.1443 25.2066 11.1443C25.2202 11.1443 25.3364 11.3584 25.4647 11.6207C25.8055 12.3138 26.3505 12.7526 27.2112 13.0258C28.5551 13.453 29.7314 13.386 31.1397 12.8023C31.7863 12.5342 33.0412 11.75 33.6584 11.2291L33.971 10.9647L34.5332 11.0966C35.2568 11.2668 35.9405 11.2657 36.7839 11.094C38.21 10.804 39.7345 10.1511 40.9611 9.30668C41.3035 9.0711 41.6087 8.87843 41.6396 8.87843C41.671 8.87843 41.8501 9.10407 42.0391 9.37945C42.2276 9.65535 42.7008 10.1946 43.0914 10.5778C43.7919 11.2652 43.896 11.4055 43.7065 11.4055C43.4196 11.4055 39.7376 12.962 38.1147 13.7692C35.9892 14.8268 34.6249 15.6843 33.727 16.5282C32.5836 17.6025 32.4234 18.4941 33.2888 18.9653C33.5574 19.1113 34.9657 19.493 35.752 19.6322C36.0541 19.6856 37.4268 19.6077 38.1147 19.4977C41.1967 19.0056 45.0599 17.2963 46.6346 15.7278C47.8209 14.5467 47.7623 13.8357 46.3708 12.5395C46.0556 12.2453 45.8111 11.9919 45.8284 11.9762C45.8985 11.9118 48.9198 10.9647 50.0156 10.6637C50.6653 10.4857 52.0196 10.1496 53.0243 9.91712ZM8.29394 10.0114L7.94109 10.9265L6.68618 11.9981C5.16219 13.2991 4.00362 14.1818 3.22042 14.6373C2.89793 14.8252 2.6037 14.9791 2.56653 14.9791C2.34717 14.9791 2.74558 13.8284 3.26911 12.951C4.3057 11.2123 6.86838 8.38789 8.28871 7.41883C9.19703 6.7995 9.23786 6.78746 9.23682 7.14764C9.23629 7.44134 8.9515 8.30569 8.29394 10.0114ZM33.8841 9.44542C33.6186 9.74854 33.571 9.77314 33.5165 9.63546C33.4192 9.38887 33.526 8.42139 33.6846 8.11618C33.8783 7.74238 34.4416 7.21047 34.6097 7.24188C34.8725 7.29109 34.8243 7.81671 34.4955 8.47898C34.3264 8.81927 34.0516 9.25433 33.8841 9.44542ZM46.1378 14.0682C45.852 15.8246 40.5632 18.403 36.2326 18.8967H36.2331C34.7714 19.0637 34.572 19.0056 34.5887 18.4166C34.6055 17.825 35.2023 17.1748 36.6007 16.2235C38.1906 15.1414 40.6648 13.9258 43.6547 12.7573L44.9504 12.251L45.3462 12.6348C45.92 13.1907 46.1985 13.6954 46.1378 14.0682Z" fill="#F06111"/>
</svg>
